<?xml version="1.0" encoding="UTF-8" standalone="no"?>
<svg
   version="1.1"
   id="Layer_1"
   x="0px"
   y="0px"
   width="275.71896"
   viewBox="0 0 275.71896 353.75186"
   enable-background="new 0 0 1024 1024"
   xml:space="preserve"
   sodipodi:docname="S.svg"
   height="353.75186"
   inkscape:version="1.4 (e7c3feb100, 2024-10-09)"
   xmlns:inkscape="http://www.inkscape.org/namespaces/inkscape"
   xmlns:sodipodi="http://sodipodi.sourceforge.net/DTD/sodipodi-0.dtd"
   xmlns="http://www.w3.org/2000/svg"
   xmlns:svg="http://www.w3.org/2000/svg"><defs
   id="defs1" /><sodipodi:namedview
   id="namedview1"
   pagecolor="#505050"
   bordercolor="#ffffff"
   borderopacity="1"
   inkscape:showpageshadow="0"
   inkscape:pageopacity="0"
   inkscape:pagecheckerboard="1"
   inkscape:deskcolor="#505050"
   inkscape:zoom="0.56152344"
   inkscape:cx="449.66957"
   inkscape:cy="146.0313"
   inkscape:window-width="1366"
   inkscape:window-height="755"
   inkscape:window-x="0"
   inkscape:window-y="0"
   inkscape:window-maximized="1"
   inkscape:current-layer="Layer_1" />

<g
   id="g7"
   transform="translate(-376.90123,-336.37791)"><path
     style="fill:#ffffff;stroke-width:1.78087"
     d="m 521.72005,579.43514 c -56.56617,-32.41641 -100.42281,-59.96735 -108.82339,-68.36336 -19.24578,-19.2353 -29.1601,-51.86965 -23.82598,-78.42647 2.88665,-14.37173 13.99021,-36.77048 24.77291,-49.97339 15.97309,-19.55831 41.68936,-35.80654 67.88163,-42.88947 18.1988,-4.92132 53.95233,-4.43088 71.17202,0.97628 50.1744,15.7553 87.64279,55.48343 97.15157,103.01083 5.07959,25.38912 9.45729,26.3114 -57.90968,-12.20024 -32.81252,-18.75792 -63.66609,-35.6859 -68.56348,-37.61773 -27.85239,-10.9867 -60.05649,1.85204 -73.84147,29.43823 -4.5846,9.17459 -5.40722,12.85945 -5.40722,24.22106 0,15.612 3.9226,25.59235 13.29181,33.81863 3.25951,2.86189 27.56233,18.09148 54.00627,33.84355 52.61292,31.34035 55.59219,33.94498 55.57018,48.58235 -0.0133,8.84549 -4.12455,16.27151 -11.81555,21.34209 -8.53628,5.62787 -16.01924,4.34683 -33.65962,-5.76236 z"
     id="path2" /><path
     style="fill:#ffffff;stroke-width:1.78087"
     d="m 479.36227,686.59517 c -44.21679,-11.92 -85.1928,-52.40054 -97.21254,-96.03705 -4.33816,-15.74929 -6.85597,-43.67077 -4.09203,-45.37898 1.99085,-1.23042 34.14128,16.89785 91.20143,51.42463 52.90738,32.01396 51.87634,31.54501 67.67304,30.78083 21.8798,-1.05844 36.67929,-10.97565 46.67303,-31.27582 5.24655,-10.65723 5.86079,-13.50334 5.84523,-27.08351 -0.0191,-16.66575 -3.2066,-26.20196 -12.38969,-37.06697 -2.9363,-3.4741 -25.21938,-17.95344 -54.67072,-35.52456 -36.80073,-21.95586 -50.62056,-31.12672 -53.20343,-35.30589 -7.04474,-11.39863 -2.74941,-27.20807 9.40583,-34.61921 7.46763,-4.55307 13.90333,-4.48386 23.23853,0.24989 9.58904,4.86246 85.81327,49.58302 100.78662,59.13124 14.06344,8.96799 27.29448,24.59568 35.67579,42.13806 6.30912,13.20517 6.38142,13.61885 6.38142,36.50782 0,20.80144 -0.50753,24.59738 -5.00027,37.39826 -12.90261,36.76269 -37.16408,63.05356 -71.23663,77.19545 -26.68871,11.0772 -64.06027,14.20946 -89.07561,7.46581 z"
     id="path3" /></g></svg>
