<?xml version="1.0" encoding="UTF-8" standalone="no"?>
<svg
   width="284.23715"
   height="284.23715"
   viewBox="0 0 284.23716 284.23716"
   fill="none"
   version="1.1"
   id="svg1"
   sodipodi:docname="sigui-reverse.svg"
   inkscape:version="1.3.2 (091e20ef0f, 2023-11-25)"
   inkscape:export-filename="sigui.png"
   inkscape:export-xdpi="96"
   inkscape:export-ydpi="96"
   xmlns:inkscape="http://www.inkscape.org/namespaces/inkscape"
   xmlns:sodipodi="http://sodipodi.sourceforge.net/DTD/sodipodi-0.dtd"
   xmlns="http://www.w3.org/2000/svg"
   xmlns:svg="http://www.w3.org/2000/svg">
  <sodipodi:namedview
     id="namedview1"
     pagecolor="#505050"
     bordercolor="#ffffff"
     borderopacity="1"
     inkscape:showpageshadow="0"
     inkscape:pageopacity="0"
     inkscape:pagecheckerboard="1"
     inkscape:deskcolor="#505050"
     inkscape:zoom="1.7198582"
     inkscape:cx="141.29072"
     inkscape:cy="142.16288"
     inkscape:window-width="1366"
     inkscape:window-height="683"
     inkscape:window-x="0"
     inkscape:window-y="0"
     inkscape:window-maximized="1"
     inkscape:current-layer="svg1" />
  <defs
     id="defs1">
    <inkscape:path-effect
       effect="powerclip"
       id="path-effect4"
       is_visible="true"
       lpeversion="1"
       inverse="true"
       flatten="false"
       hide_clip="false"
       message="Use fill-rule evenodd on &lt;b&gt;fill and stroke&lt;/b&gt; dialog if no flatten result after convert clip to paths." />
    <clipPath
       id="clip0">
      <rect
         width="282"
         height="282"
         fill="#ffffff"
         id="rect1"
         x="0"
         y="0" />
    </clipPath>
    <clipPath
       clipPathUnits="userSpaceOnUse"
       id="clipPath4">
      <g
         clip-path="url(#clip0)"
         id="g4"
         transform="matrix(1.0038757,0,0,1.0038757,0.37690637,0.84602337)"
         style="display:none;fill:#7800ff;fill-opacity:1">
        <path
           d="M 41.707679,148.1227 195.54142,15.563337 c 6.70321,-4.292774 13.09222,0 9.00089,7.364373 l -49.09581,96.55577 h 87.55421 c 0,0 13.91048,0 0,11.45569 L 91.621929,264.31616 C 80.9845,273.31703 73.620126,268.40747 80.9845,254.49699 l 47.45929,-94.10033 H 41.707679 c 0,0 -13.910483,0 0,-12.27396 z"
           fill="#ffffff"
           id="path4"
           style="fill:#7800ff;fill-opacity:1;stroke-width:1.63652" />
      </g>
      <path
         id="lpe_path-effect4"
         style="fill:#7800ff;fill-opacity:1"
         class="powerclip"
         d="M -5,-5 H 289.23715 V 289.23715 H -5 Z m 46.707679,153.1227 c -13.910483,12.27396 0,12.27396 0,12.27396 H 128.44379 L 80.9845,254.49699 c -7.364374,13.91048 0,18.82004 10.637429,9.81917 L 243.00071,130.93917 c 13.91048,-11.45569 0,-11.45569 0,-11.45569 H 155.4465 l 49.09581,-96.55577 c 4.09133,-7.364373 -2.29768,-11.657147 -9.00089,-7.364373 z" />
    </clipPath>
  </defs>
  <path
     style="fill:#7800ff;fill-opacity:0.941176;stroke-width:1.19975"
     id="path2"
     clip-path="url(#clipPath4)"
     inkscape:path-effect="#path-effect4"
     sodipodi:type="arc"
     sodipodi:cx="142.11858"
     sodipodi:cy="142.11858"
     sodipodi:rx="142.11858"
     sodipodi:ry="142.11858"
     d="M 284.23715,142.11858 A 142.11858,142.11858 0 0 1 142.11858,284.23715 142.11858,142.11858 0 0 1 0,142.11858 142.11858,142.11858 0 0 1 142.11858,0 142.11858,142.11858 0 0 1 284.23715,142.11858 Z" />
</svg>
