<svg version="1.1" id="Layer_1" xmlns="http://www.w3.org/2000/svg" xmlns:xlink="http://www.w3.org/1999/xlink" x="0px" y="0px"
	 width="100%" viewBox="0 0 1024 1024" enable-background="new 0 0 1024 1024" xml:space="preserve">
<path fill="#011125" opacity="1.000000" stroke="none" 
	d="
M680.000000,1025.000000 
	C454.833344,1025.000000 230.166672,1024.989136 5.500043,1025.093506 
	C1.750793,1025.095215 0.905801,1024.249146 0.906913,1020.500000 
	C1.007246,682.166687 1.007246,343.833344 0.906913,5.500028 
	C0.905801,1.750903 1.750902,0.905800 5.500028,0.906912 
	C343.833344,1.007255 682.166687,1.007255 1020.500000,0.906912 
	C1024.249146,0.905800 1025.094360,1.750902 1025.093262,5.500027 
	C1024.992920,343.833344 1024.992798,682.166687 1025.093140,1020.500000 
	C1025.094238,1024.249146 1024.249512,1025.098511 1020.499878,1025.094604 
	C907.166687,1024.978638 793.833313,1025.000000 680.000000,1025.000000 
z"/>
<path fill="#031327" opacity="1.000000" stroke="none" 
	d="
M326.646362,421.487244 
	C324.296600,419.433868 323.290375,417.797150 326.040802,414.968719 
	C329.339294,411.576630 327.702515,410.007751 324.101166,406.903839 
	C320.091034,403.447693 316.098389,402.830688 311.306915,402.916321 
	C308.117188,402.973358 306.915039,403.926208 306.934357,407.221222 
	C306.975037,414.167175 307.440643,421.128693 306.079468,428.055878 
	C305.465546,431.180420 304.354431,433.757050 301.026642,433.675079 
	C297.357605,433.584747 295.390442,431.339844 295.970428,427.359161 
	C296.160095,426.057312 296.117035,424.691528 295.970978,423.378296 
	C295.780548,421.665924 296.934509,419.326050 294.839569,418.420685 
	C292.964569,417.610413 292.657837,420.678741 290.571442,420.938873 
	C288.584686,418.384552 290.296021,416.183807 291.252167,413.996826 
	C302.620209,387.994934 317.861755,364.537842 336.742920,343.302917 
	C358.083710,319.301758 383.464508,300.802643 411.916809,286.298859 
	C439.750336,272.110535 469.552673,264.734589 500.449524,261.624542 
	C519.371338,259.719940 538.348877,259.701324 557.217163,262.646698 
	C560.285889,263.125732 563.601135,262.921753 566.534485,265.344208 
	C567.227905,268.842438 565.675110,269.315674 562.942444,268.518829 
	C561.299194,268.039642 558.827087,266.956116 558.399597,269.511200 
	C557.987183,271.976440 560.528015,271.830566 562.350586,272.024719 
	C564.152405,272.216583 565.923401,272.812683 567.722656,272.890900 
	C571.769409,273.066864 575.797485,273.225006 577.244202,267.972595 
	C577.978333,265.307007 580.398743,264.559906 582.886719,265.116272 
	C585.945679,265.800354 585.708557,268.657074 585.438293,270.728333 
	C584.824768,275.431213 586.791809,277.231903 591.641724,277.022583 
	C593.315552,278.703796 592.403687,280.223389 591.572144,281.612213 
	C583.676270,294.799896 574.654175,307.264160 566.620117,320.365021 
	C566.099426,321.214050 565.281738,321.821808 563.931885,322.168823 
	C562.205139,321.577881 560.895691,320.769836 559.471619,320.372589 
	C556.587708,319.568115 554.811462,320.564087 555.175842,323.815948 
	C555.756531,328.998260 553.824463,332.928162 549.489807,335.691803 
	C548.334167,336.428589 547.380127,337.245605 546.722290,338.466125 
	C544.941162,341.770966 544.096802,345.952759 538.712036,345.484222 
	C537.100586,345.343994 537.152649,347.676270 536.932434,349.157501 
	C536.601074,351.385223 535.308838,352.889954 532.973328,352.869507 
	C530.646362,352.849091 529.232483,351.347168 529.091736,349.103882 
	C528.931274,346.546967 528.089111,344.984741 525.279724,344.965698 
	C523.002808,344.950287 522.126587,343.605499 521.993164,341.436096 
	C521.844299,339.017090 522.902161,337.308014 525.199097,337.235168 
	C528.770020,337.121948 529.070374,335.136505 529.041809,332.310791 
	C528.983276,326.516907 528.427795,320.654663 530.500061,315.035706 
	C530.908508,313.928131 530.555176,313.105713 529.430664,312.217621 
	C528.228149,309.395691 530.368225,308.152954 531.728638,306.647156 
	C534.495667,303.584290 537.673157,300.896271 541.002380,296.941040 
	C533.613586,296.624054 527.173401,295.179291 520.610718,295.607056 
	C504.336334,296.667816 488.177399,298.234589 472.273315,302.410645 
	C448.335297,308.696198 426.414215,318.945496 405.684082,332.415405 
	C380.556366,348.742798 360.141724,369.533051 343.510529,394.255890 
	C338.581055,401.583710 334.892059,409.639465 330.249359,417.140289 
	C329.297638,418.677856 328.861725,420.568848 326.646362,421.487244 
z"/>
<path fill="#F8FAFA" opacity="1.000000" stroke="none" 
	d="
M566.817322,265.424316 
	C523.247742,258.095398 480.228394,261.500214 438.967255,276.588104 
	C369.252869,302.080414 320.245453,350.191376 291.056122,418.453247 
	C290.794617,419.064758 290.544403,419.681152 290.260010,420.649597 
	C289.493225,422.767242 288.755371,424.530579 288.025574,426.652008 
	C287.850861,430.385986 287.624176,433.749420 284.986023,436.696106 
	C284.407776,437.384583 284.179749,437.905640 283.990204,438.717773 
	C283.935638,440.188416 284.165924,441.425476 283.131561,442.714508 
	C282.584290,443.423431 282.316101,443.905304 281.991760,444.643677 
	C272.488861,444.900208 263.042114,444.900208 253.491486,444.900208 
	C276.330078,347.956848 364.152008,250.421951 487.573547,236.888367 
	C489.309143,235.633514 490.876404,235.074509 492.973694,234.685425 
	C494.836548,234.287140 496.290283,234.355606 498.192932,234.436798 
	C510.245911,232.422119 521.955078,233.327072 534.083008,233.172974 
	C537.773926,233.901917 541.181885,233.081924 544.799133,234.327621 
	C548.265930,233.776047 551.231750,234.398117 554.047302,235.251968 
	C556.512268,235.999527 558.917664,235.901093 561.387695,235.942566 
	C568.649963,236.064545 575.543579,238.015213 582.690918,240.621582 
	C583.000000,241.355759 582.971802,241.801834 582.878906,242.589264 
	C582.878113,244.427353 582.327637,245.619171 580.771790,246.275604 
	C580.479675,246.094223 580.231445,246.262054 580.212280,246.410645 
	C580.601807,247.578354 579.748413,248.020874 578.962646,248.750641 
	C576.473999,251.946106 574.271912,255.016174 571.981812,258.407104 
	C571.346313,260.205322 570.610352,261.557312 569.065063,262.736023 
	C568.429382,262.918732 568.183105,263.084290 567.994385,263.638916 
	C567.774658,264.136414 567.588257,264.393066 567.227905,264.816254 
	C567.070801,264.995026 566.805725,265.243134 566.817322,265.424316 
z"/>
<path fill="#FAFCFC" opacity="1.000000" stroke="none" 
	d="
M326.301697,421.844757 
	C331.958862,411.420532 337.157104,401.023529 343.741516,391.389496 
	C353.359192,377.317230 363.992706,364.080170 376.755310,352.807434 
	C420.934784,313.785339 471.965668,292.726807 531.591248,294.696228 
	C535.558044,294.827271 539.533020,294.713318 543.504150,294.713318 
	C543.751892,295.140503 543.999573,295.567688 544.247314,295.994873 
	C539.293579,301.137726 534.339905,306.280579 529.265381,311.730194 
	C526.675049,313.190521 525.139587,315.436157 523.028076,317.461975 
	C522.646362,318.634491 522.379700,319.492737 520.996033,319.784912 
	C515.632446,320.418579 510.593536,320.974182 505.167847,321.680115 
	C504.696472,322.004120 504.611908,322.177795 504.350037,322.122314 
	C487.645203,323.574341 471.738251,327.973755 456.517029,334.326935 
	C419.081573,349.952026 387.442261,373.135101 364.493713,407.172852 
	C357.142456,418.076416 350.936584,429.624512 345.573029,441.609131 
	C344.442017,444.136261 343.195587,445.057159 340.419006,444.955780 
	C334.107147,444.725342 327.780029,444.944397 321.461487,444.837921 
	C320.351288,444.819244 318.740326,445.799744 318.071594,443.443787 
	C317.906769,441.331512 318.059113,439.739166 319.664215,438.262634 
	C320.246033,437.213501 320.598999,436.428436 320.931641,435.318268 
	C320.834137,434.801788 320.756989,434.610413 320.936310,434.245850 
	C321.838806,432.626587 322.484772,431.180573 323.121704,429.386139 
	C322.682587,427.215210 323.027191,425.647552 324.913879,424.286682 
	C325.587524,423.435455 325.957092,422.784821 326.301697,421.844757 
z"/>
<path fill="#F8FAFA" opacity="1.000000" stroke="none" 
	d="
M697.787964,324.196106 
	C682.169556,310.253174 665.044434,299.047638 647.318237,288.739380 
	C644.381592,287.031647 643.759766,285.677002 645.302063,282.643890 
	C648.165710,277.012573 650.896179,271.284790 653.197998,265.407623 
	C654.520142,262.031952 655.965942,262.337189 658.599915,263.718872 
	C687.001282,278.617065 712.420898,297.436310 734.540527,320.721161 
	C765.820007,353.648224 788.679138,391.382385 800.517212,435.460999 
	C803.057678,444.920349 802.974426,444.967438 793.481689,444.922607 
	C787.330017,444.893555 779.629150,446.991302 775.467224,444.075470 
	C771.380676,441.212433 770.870605,433.223206 768.825012,427.471497 
	C754.375671,386.844666 729.864807,353.130859 697.787964,324.196106 
z"/>
<path fill="#8C682E" opacity="1.000000" stroke="none" 
	d="
M537.189819,778.692871 
	C539.178162,777.641846 541.243469,777.217041 543.704102,777.865967 
	C544.175598,778.154541 544.353271,778.266724 544.771606,778.175537 
	C575.198242,774.375732 604.723022,768.446716 632.413635,755.101685 
	C650.341797,746.461426 667.044556,735.989563 683.189087,723.956360 
	C684.530151,723.586365 685.026794,722.737732 685.757446,721.709961 
	C686.109741,721.389221 686.249023,721.269104 686.651978,721.068359 
	C687.166504,720.783020 687.412354,720.572632 687.827393,720.187378 
	C688.001526,720.018311 687.997681,719.997559 688.007324,720.002014 
	C689.723938,719.059082 691.294983,717.940552 692.743896,716.160522 
	C692.946777,715.908142 692.989136,715.965698 692.953857,715.971313 
	C693.193115,715.784851 693.445496,715.567078 693.824829,715.122070 
	C693.973938,714.920593 693.989136,714.987671 693.955261,714.981934 
	C694.201599,714.781982 694.452698,714.556030 694.824585,714.090576 
	C695.041992,713.553528 695.221252,713.301880 695.743835,713.062622 
	C696.414062,712.541382 697.042664,712.526550 697.762695,712.068970 
	C697.941833,711.832092 697.861755,711.915710 697.825806,711.870361 
	C700.591980,709.276245 703.580200,706.943726 706.338928,704.340149 
	C709.606445,701.256287 712.370728,701.769958 713.810120,706.095886 
	C714.821472,709.135376 716.318726,711.028992 719.223450,712.556152 
	C723.254456,714.675293 723.091248,723.826233 719.072388,726.893738 
	C717.390198,728.177673 716.392700,729.733154 715.193115,731.763550 
	C706.553040,741.231567 696.049072,747.744263 686.019531,754.819336 
	C652.607361,778.388794 615.666199,793.635376 575.384583,800.457764 
	C550.692566,804.639832 525.791138,805.252075 500.508789,802.442749 
	C499.334930,801.237732 498.075623,801.232422 496.979218,801.090454 
	C494.394775,800.755737 492.963776,799.378113 493.067871,796.829468 
	C493.184784,793.966736 495.286255,793.083679 497.773010,792.558350 
	C504.733490,791.088196 511.599030,789.328064 518.088867,786.257690 
	C520.194458,785.261536 521.516418,784.557434 521.552307,781.720459 
	C521.598328,778.081177 524.561523,778.645813 526.671082,779.788574 
	C530.290283,781.749023 533.650146,781.526978 537.097900,779.611023 
	C537.679260,779.287964 538.106506,779.106384 537.499939,779.381775 
	C537.474609,779.393250 537.322266,779.124939 537.189819,778.692871 
z"/>
<path fill="#F7EACE" opacity="1.000000" stroke="none" 
	d="
M563.446167,322.539856 
	C573.162659,307.468933 583.055298,292.927002 591.994202,277.386047 
	C592.050171,277.031433 592.004517,277.011230 592.018433,277.031769 
	C592.964111,275.948883 592.834534,274.054291 594.995789,273.556549 
	C598.854309,274.866882 599.179077,278.018250 599.768555,281.427734 
	C599.872681,282.554810 599.719604,283.267456 599.133667,284.206970 
	C597.896118,285.508118 595.963379,285.699188 595.951965,288.012817 
	C595.863159,288.560638 595.812805,288.778473 595.638428,289.309937 
	C594.266724,291.947662 592.077087,293.861603 592.323364,297.206726 
	C589.481689,305.693207 584.768494,312.923004 581.176208,321.092773 
	C563.685913,354.583862 548.633179,388.826965 532.676392,422.639862 
	C527.998901,432.551605 524.035522,442.800995 518.485168,452.681152 
	C517.747131,453.665100 517.164368,454.338867 517.009521,455.597046 
	C516.597473,458.035950 515.757568,459.903900 513.925293,461.617493 
	C511.862335,462.728546 509.874237,463.514801 511.193451,466.539673 
	C511.412628,468.468506 511.212921,469.959991 509.964325,471.551086 
	C509.163086,472.239594 508.212616,472.371552 508.041443,472.879333 
	C506.112640,478.602325 499.784302,480.203369 496.832184,484.954407 
	C495.835815,486.557922 494.094452,487.296448 492.505096,488.203369 
	C488.249725,490.631531 483.368256,492.036346 480.436401,496.563934 
	C479.097321,498.631836 476.356018,498.593536 474.019684,498.569916 
	C470.390869,498.533203 467.649597,499.931976 465.676941,503.016998 
	C463.357788,506.643707 459.924286,508.019928 455.795166,507.042114 
	C452.524567,506.267578 449.175537,508.155731 445.661682,506.322571 
	C446.281830,504.522156 447.238892,502.916779 448.479004,501.116028 
	C449.374573,500.629730 449.492889,500.047455 449.808655,499.241791 
	C457.178650,487.613800 464.285889,476.166290 471.630646,464.873260 
	C472.515991,463.511963 473.094177,462.046967 474.024078,460.356812 
	C473.221313,458.387177 474.849121,458.201904 475.786255,457.251038 
	C478.759827,455.421600 479.354950,452.321442 481.060242,449.627075 
	C484.173737,441.648438 489.319702,435.279175 494.137817,428.541321 
	C494.495758,428.590515 494.529358,428.509308 494.561157,428.479004 
	C494.291473,427.464752 495.156311,427.054962 495.808624,426.224731 
	C496.031067,426.018372 495.996246,426.004486 496.009033,426.018921 
	C496.889465,424.973724 496.991516,423.537689 498.121826,422.415771 
	C498.328003,422.250153 498.199554,422.111389 498.258881,422.183838 
	C500.355835,417.105927 502.940308,412.222473 507.328796,408.144287 
	C507.940033,407.691040 508.191895,407.300293 508.319458,406.699036 
	C508.115112,406.298431 508.035034,406.108307 508.117798,406.181305 
	C509.990692,406.009735 509.928406,404.097290 511.096619,402.840820 
	C511.345856,401.286133 511.943695,400.258942 513.149658,399.266357 
	C514.306702,397.984314 515.114746,396.801361 515.967285,395.309387 
	C515.926392,394.791321 515.841064,394.582275 516.066345,394.508209 
	C516.376953,394.643188 516.552612,394.550812 516.585327,394.457092 
	C516.353699,394.155334 516.263794,393.945435 516.348145,393.733551 
	C516.432983,393.520752 516.519165,393.414307 516.846558,393.223694 
	C519.054016,390.347717 521.021851,387.662354 523.054688,384.648346 
	C523.300293,383.536072 523.713623,382.904175 524.553833,382.209534 
	C525.719849,380.668274 526.688904,379.339722 527.745911,377.667847 
	C527.744324,376.006470 528.263916,375.028748 529.742188,374.219604 
	C531.302307,372.200867 532.573792,370.387878 533.908081,368.242096 
	C535.217041,365.737274 534.836304,362.621674 538.069153,361.278259 
	C540.265015,358.428467 542.131226,355.710938 544.061646,352.667236 
	C544.376953,351.680023 544.476196,350.961578 545.217896,350.260315 
	C546.712769,348.450226 547.865540,346.736481 549.079712,344.713867 
	C549.734619,342.978119 549.817261,341.256805 551.697510,340.203796 
	C555.747192,334.283936 559.536560,328.581787 563.446167,322.539856 
z"/>
<path fill="#A68040" opacity="1.000000" stroke="none" 
	d="
M516.698730,453.204529 
	C528.364136,428.256775 539.962463,403.579803 551.313965,378.789764 
	C560.177490,359.432953 569.628723,340.369812 579.454102,321.121582 
	C582.430603,319.637299 584.079712,317.633759 584.553711,314.566071 
	C585.014648,311.582397 586.565979,309.255890 589.760986,308.761047 
	C592.945557,308.267853 596.075439,308.351074 597.816650,312.296600 
	C597.795776,313.288452 597.659546,313.837097 597.239746,314.739746 
	C597.034912,315.113342 597.142456,315.574707 597.051880,315.793579 
	C594.546936,320.186035 593.861694,324.944336 592.269287,329.793762 
	C592.119934,330.141144 592.101746,330.037231 592.154480,330.038361 
	C590.402344,333.783600 589.357239,337.780670 588.192017,342.149719 
	C588.084106,342.525757 588.223328,342.768890 588.129700,342.873108 
	C587.246094,343.665375 587.606079,344.646698 587.212646,345.763611 
	C587.028259,346.044312 586.996338,346.005188 587.021362,346.008087 
	C586.545044,346.422089 586.505554,347.036682 586.234863,347.874268 
	C586.123047,348.149780 586.118652,348.049164 586.168091,348.058594 
	C582.402039,357.666656 579.272034,367.494110 576.251343,377.765869 
	C576.079956,378.116486 576.057068,378.029083 576.101929,378.023987 
	C574.953613,380.753448 573.509705,383.407288 573.231567,386.826660 
	C573.046143,387.157135 573.072876,387.618896 572.976624,387.829163 
	C572.151855,389.244141 571.845703,390.630127 571.152344,392.223602 
	C571.074524,392.563904 571.259705,392.721466 571.199097,392.826843 
	C569.562866,395.209351 569.408875,397.995667 568.302063,400.833069 
	C568.171875,401.178833 568.132263,401.073334 568.188354,401.068420 
	C566.353577,404.780457 565.375000,408.805023 564.184692,413.171600 
	C564.080139,413.549744 564.241699,413.763031 564.155396,413.865265 
	C561.412109,419.634705 559.562134,425.596649 557.827393,431.583008 
	C555.630127,439.165710 552.792114,446.544159 550.781128,454.552490 
	C550.717957,455.494965 550.627747,456.058899 550.323120,456.819397 
	C548.402344,460.684448 547.351624,464.563965 546.229675,468.811951 
	C545.523865,473.149445 543.502136,476.648224 542.133789,480.753540 
	C541.333923,483.101929 539.420898,483.504608 537.816895,484.287170 
	C526.799316,489.662476 515.886230,495.246460 504.601501,500.927216 
	C502.031342,502.180664 499.850708,503.389771 497.514740,504.248352 
	C496.429840,504.647095 495.226410,505.033813 494.232697,504.111115 
	C493.192230,503.145050 493.590698,501.862854 494.079773,500.870941 
	C497.666962,493.594849 500.432770,485.925293 504.359894,478.833282 
	C505.702911,476.407928 506.068970,473.395477 508.682129,471.258606 
	C509.525299,469.668701 510.115021,468.362122 510.783997,466.699158 
	C510.619965,464.401398 511.362183,462.819672 512.942627,461.266724 
	C514.104370,459.282104 514.976746,457.469055 515.882080,455.315491 
	C515.982849,454.405396 516.167053,453.881714 516.698730,453.204529 
z"/>
<path fill="#F0F9FB" opacity="1.000000" stroke="none" 
	d="
M369.601562,467.587463 
	C369.140320,455.378448 369.137360,443.387695 368.867188,431.402985 
	C368.796478,428.266907 371.042511,427.511047 372.910370,426.358917 
	C398.402191,410.634796 424.004822,395.088989 449.414612,379.233948 
	C463.527039,370.428192 477.303711,361.085571 491.303894,352.097321 
	C493.476837,350.702271 494.798096,348.143372 497.927002,347.443695 
	C498.280151,347.251984 498.218506,347.678375 498.424774,347.740479 
	C497.428802,350.505768 496.226593,353.208984 494.981934,356.313721 
	C495.137512,358.232910 494.286713,359.349213 493.262878,360.744324 
	C492.582245,361.793030 492.134491,362.585815 491.584473,363.710632 
	C493.258759,365.103912 491.981140,366.368073 491.520203,367.332550 
	C488.221466,374.234863 484.984680,381.170288 482.073883,388.238892 
	C479.265533,395.058685 473.501343,398.085419 466.897278,400.762756 
	C449.089447,411.515381 431.657654,422.199524 414.207611,432.853760 
	C408.723999,436.201782 402.729553,438.620911 397.385437,442.271637 
	C395.609192,443.485107 395.022308,444.557739 395.046814,446.571503 
	C395.146149,454.734955 395.091003,462.900299 395.009247,471.526245 
	C393.352966,473.775787 391.024719,474.970490 389.203369,473.605133 
	C383.421112,469.270538 376.463440,469.402588 369.601562,467.587463 
z"/>
<path fill="#9F7A39" opacity="1.000000" stroke="none" 
	d="
M637.517456,481.492188 
	C639.120239,480.830841 640.403564,480.812897 642.316223,481.603638 
	C615.562683,519.523010 590.896973,558.651062 564.330811,596.884827 
	C561.750305,594.290955 559.449829,593.473328 555.570557,594.902527 
	C551.197205,596.513672 546.331177,596.106201 541.880981,591.273376 
	C542.216614,594.399536 543.942261,594.996582 544.779663,596.161072 
	C546.690430,598.818237 544.982666,604.070923 542.133972,603.465149 
	C537.616577,602.504578 534.366394,605.411560 530.092163,605.421509 
	C528.109314,602.656921 529.654480,600.456055 530.707825,598.289978 
	C535.250549,588.948486 540.045288,579.731934 544.759155,570.057922 
	C552.700317,554.083313 560.405945,538.410828 567.445312,522.033264 
	C567.224304,517.929077 570.266724,515.964600 572.208008,512.988525 
	C586.266357,505.399353 600.275696,498.461304 614.448547,491.880798 
	C621.981323,488.383301 629.152893,484.036652 637.517456,481.492188 
z"/>
<path fill="#4C9AC2" opacity="1.000000" stroke="none" 
	d="
M644.732971,358.186890 
	C639.225159,354.700745 634.099548,351.277588 628.797791,348.153381 
	C626.555176,346.831909 625.581421,345.780518 627.058594,343.161926 
	C630.329712,337.363495 633.335510,331.415497 636.454163,325.530945 
	C637.649414,323.275665 638.872803,322.525024 641.517639,324.157318 
	C678.622131,347.056976 708.502075,376.667999 727.658386,416.318817 
	C731.432434,424.130646 734.519165,432.206665 736.852112,440.572571 
	C737.607239,443.280518 737.671143,444.900818 733.927368,444.727112 
	C727.775513,444.441711 721.599670,444.637543 715.434570,444.697693 
	C713.300232,444.718506 711.862793,444.429504 710.874084,441.967896 
	C697.105347,407.688873 675.076172,379.866852 644.732971,358.186890 
z"/>
<path fill="#967233" opacity="1.000000" stroke="none" 
	d="
M529.246704,604.910461 
	C530.966858,604.995667 532.233521,604.991455 533.140747,603.667236 
	C534.885681,601.120300 536.965271,600.091919 539.812805,602.198120 
	C542.119873,603.904541 542.961243,601.786987 544.055420,600.410278 
	C545.482422,598.614746 544.727722,597.408142 543.028931,596.404541 
	C542.461548,596.069458 541.983276,595.584290 541.417603,595.245544 
	C539.728333,594.233948 538.055298,592.955322 539.869934,591.014465 
	C541.556641,589.210388 543.319092,589.978394 544.916626,591.761536 
	C546.988770,594.074463 554.132507,594.899719 556.803650,593.363464 
	C561.280579,590.788696 562.039062,591.100098 564.034546,596.699707 
	C564.054810,597.076111 564.024841,597.032104 564.049866,597.033325 
	C563.170410,597.648376 562.822876,598.639282 562.211914,599.824097 
	C562.056641,600.091187 562.021240,600.026184 562.058228,600.025085 
	C561.811096,600.212830 561.554321,600.433899 561.180237,600.895081 
	C561.039673,601.107849 561.037781,601.021973 561.080627,601.025391 
	C560.577087,601.388977 560.507385,601.989685 560.185974,602.789673 
	C560.015625,603.029968 559.998840,603.000000 560.014526,603.006958 
	C559.188416,603.671082 558.811768,604.632996 558.206787,605.811768 
	C558.045105,606.072266 558.013733,606.002991 558.046387,606.022461 
	C557.594971,606.386353 557.229065,606.824829 556.951660,607.666138 
	C545.364319,626.034119 533.141052,643.649719 521.103760,661.392639 
	C501.403809,690.430176 481.931458,719.622192 462.341400,748.734375 
	C459.186493,753.422852 455.919403,758.035828 452.418701,762.849792 
	C451.646667,763.377014 451.504089,763.918579 451.162659,764.653198 
	C450.952576,764.840515 450.983459,764.942566 450.931305,764.953735 
	C449.928406,766.073242 448.893799,767.122742 448.207581,768.798828 
	C448.036621,769.061646 448.008881,769.000488 448.038452,769.016418 
	C447.189728,769.652527 446.818085,770.615906 446.194885,771.778137 
	C446.014404,772.025146 445.996277,772.001526 446.010864,772.003418 
	C445.736053,772.249512 445.481506,772.526184 445.155212,773.094971 
	C444.865265,773.831482 444.677368,774.304077 444.253540,774.889404 
	C443.216827,775.669922 442.806702,776.592407 442.189087,777.737305 
	C441.993530,777.967529 442.006683,778.000793 441.988892,777.998779 
	C441.211456,778.687988 440.805878,779.603455 440.181488,780.730164 
	C439.981506,780.953369 440.006866,780.993530 439.983521,780.989136 
	C437.763580,782.624634 436.642090,785.059570 435.345245,787.343323 
	C434.318024,789.152222 433.224609,790.376892 430.846558,788.539551 
	C429.716766,786.329407 430.932281,784.852783 431.800201,782.929932 
	C447.147583,754.760254 463.117767,727.360229 478.130066,699.428528 
	C479.543945,696.797913 480.796967,694.080627 482.664490,691.301392 
	C483.461029,689.750854 484.198029,688.570007 484.904602,686.983765 
	C486.140503,684.417419 487.603302,682.374878 488.901733,679.844849 
	C490.078827,677.736938 490.727631,675.752625 491.963745,673.669739 
	C494.474152,670.951050 495.242218,667.694336 496.894043,664.503784 
	C506.456512,646.575928 515.524536,628.794617 524.793884,611.118591 
	C525.937561,608.937561 526.635193,606.432251 529.246704,604.910461 
z"/>
<path fill="#26618C" opacity="1.000000" stroke="none" 
	d="
M387.346649,690.169189 
	C374.380493,680.363525 364.057037,668.427368 354.640503,655.762939 
	C339.940308,635.992432 328.782196,614.353149 322.013123,590.559143 
	C319.954742,583.323792 320.116882,583.042236 327.666748,583.039795 
	C332.991211,583.038086 338.320068,583.169739 343.638397,582.989319 
	C346.476898,582.893066 347.864258,584.075195 348.684570,586.660522 
	C358.175934,616.573853 374.385193,642.339355 396.923645,664.566040 
	C403.245636,669.827026 404.544830,675.230469 398.842987,681.540344 
	C397.783264,682.713074 397.889252,684.682861 397.498749,686.298584 
	C396.071838,692.202515 393.127716,693.371033 387.346649,690.169189 
z"/>
<path fill="#CBF1FB" opacity="1.000000" stroke="none" 
	d="
M664.147705,468.308228 
	C663.788696,461.613892 663.399963,455.110535 663.930115,448.682983 
	C664.309509,444.084167 662.367432,441.913025 658.735168,439.758179 
	C641.010071,429.242645 623.496277,418.370178 605.745178,407.899597 
	C601.701965,405.514679 600.478088,403.401184 602.565186,398.856720 
	C605.048401,393.449677 606.719849,387.652618 608.508240,381.950897 
	C609.393982,379.126923 610.177307,378.012177 613.148438,380.100128 
	C624.653564,388.185455 636.541016,395.812500 648.484497,403.110046 
	C661.084351,410.808624 672.500122,420.414062 685.973816,426.667297 
	C688.414734,427.800110 689.212463,429.407227 689.155273,432.109772 
	C688.944275,442.088501 689.001221,452.072876 688.880249,462.516754 
	C688.584351,463.223145 688.401245,463.599060 688.127808,463.679749 
	C680.393066,465.961304 672.897583,469.425232 664.147705,468.308228 
z"/>
<path fill="#F2DDB2" opacity="1.000000" stroke="none" 
	d="
M637.370483,481.282166 
	C637.851807,482.481476 637.075439,482.961334 636.115906,483.419861 
	C616.100891,492.984283 596.098755,502.575684 576.084778,512.142456 
	C575.348267,512.494507 574.518494,512.651489 573.369385,512.978271 
	C571.299011,514.692566 569.135620,514.896179 566.950317,514.896667 
	C550.793640,514.900635 534.636292,515.126038 518.011475,514.714661 
	C514.471497,514.762695 511.388458,515.150940 507.971405,514.066040 
	C505.918427,512.776367 505.643585,511.202240 506.509735,509.567139 
	C507.525757,507.649170 509.488525,507.612671 511.317139,507.823547 
	C514.880554,508.234528 518.375244,508.625122 520.316528,504.615997 
	C520.937866,503.332794 522.307556,501.964600 521.105652,500.564880 
	C520.040161,499.324097 518.316040,499.779480 516.874817,500.109161 
	C514.937256,500.552460 513.244934,501.800079 511.276978,502.101135 
	C508.556335,502.517273 505.652954,503.395782 503.739624,500.079529 
	C516.158264,493.194031 528.515137,486.782990 541.691406,481.231018 
	C557.337341,481.162933 572.646606,481.247803 587.955933,481.274292 
	C604.274658,481.302460 620.593445,481.275452 637.370483,481.282166 
z"/>
<path fill="#967233" opacity="1.000000" stroke="none" 
	d="
M715.285767,731.952515 
	C715.393555,729.542114 715.580688,727.359497 718.469421,725.606750 
	C721.651428,723.675964 719.975098,719.259460 720.560425,716.003723 
	C720.917114,714.019592 718.371216,713.030212 716.165344,712.956604 
	C713.491943,712.867371 712.990845,711.058716 712.987244,708.834778 
	C712.983948,706.767761 712.577332,704.515625 710.644470,703.671509 
	C708.372314,702.679138 707.950989,705.429138 706.630371,706.451965 
	C704.068787,708.435669 701.243225,710.078491 698.158386,711.843750 
	C701.883057,705.499512 707.866516,700.880005 712.786194,695.287537 
	C728.375671,677.566223 741.368713,658.135986 752.625793,637.111572 
	C757.266296,641.133118 757.979065,641.182739 762.983276,637.629761 
	C768.809998,633.492981 777.436768,634.219116 781.916992,639.597534 
	C776.278015,653.690979 768.765320,666.398926 760.614136,678.738831 
	C747.739685,698.229187 732.919678,716.088074 715.285767,731.952515 
z"/>
<path fill="#E6CE98" opacity="1.000000" stroke="none" 
	d="
M529.714355,604.489563 
	C519.218079,624.731384 508.826477,644.617920 498.190430,664.741089 
	C494.356873,666.645081 494.693268,670.541809 493.155945,673.718506 
	C492.264526,675.891541 491.389282,677.729797 490.258453,679.785156 
	C488.168976,681.804382 485.730804,683.229065 486.041168,686.692017 
	C485.516052,688.198486 484.979828,689.376343 484.202271,690.769775 
	C481.948303,693.108459 480.042450,695.185608 478.643860,697.917297 
	C475.417206,704.219421 468.491791,704.357178 462.174316,698.303833 
	C471.763519,673.143188 481.593597,648.276672 491.439148,623.416260 
	C493.276215,618.777649 495.175079,614.163391 497.242126,609.279724 
	C501.085144,605.649963 504.526367,602.922729 510.386902,603.437744 
	C513.877563,603.744507 517.444214,600.030823 519.246155,596.392273 
	C520.534546,593.790649 522.255920,592.472473 524.846191,591.260254 
	C529.161194,589.241028 533.208618,586.590393 535.206909,581.779480 
	C536.547363,578.552368 538.756104,575.776550 540.428772,572.706787 
	C541.457153,570.819458 542.916748,569.073792 545.841797,569.806702 
	C542.151184,579.903748 536.888977,589.144226 532.262817,598.692505 
	C531.396179,600.481262 530.630981,602.319031 529.714355,604.489563 
z"/>
<path fill="#103B61" opacity="1.000000" stroke="none" 
	d="
M614.128784,726.644287 
	C597.906433,734.724854 580.953979,739.621765 563.462219,743.047852 
	C547.189636,746.235046 530.805603,746.230896 514.373901,745.960876 
	C512.669678,745.932922 510.316406,746.874207 509.410858,744.812866 
	C508.622833,743.018921 510.844238,742.095764 511.719971,740.768188 
	C516.130371,734.081787 522.301025,728.881226 527.067566,722.502930 
	C528.781250,720.209717 531.115173,720.005188 533.718140,719.996643 
	C543.174072,719.965454 552.524109,719.095398 561.861389,717.335022 
	C578.125427,714.268738 593.574768,708.985413 608.429993,701.805603 
	C609.024292,701.518372 609.660645,701.317993 610.638672,701.038574 
	C613.577209,702.930298 613.402466,705.491882 613.457581,708.461548 
	C613.567810,714.401306 611.217834,720.506531 614.128784,726.644287 
z"/>
<path fill="#143F66" opacity="1.000000" stroke="none" 
	d="
M614.348145,726.937256 
	C611.131287,724.175415 610.695190,721.403442 611.376587,717.068726 
	C612.133606,712.252136 613.136841,706.774292 611.007751,701.367249 
	C621.152710,695.123047 631.386475,689.363770 640.573486,681.993713 
	C652.735352,672.237366 664.165649,661.734924 673.596619,649.218445 
	C673.973450,648.718323 674.634705,648.432617 675.492188,647.969360 
	C679.193604,648.243103 678.652527,650.854431 678.716736,653.030640 
	C678.828186,656.805481 679.913391,657.650879 683.063782,655.692322 
	C685.499084,654.178284 687.555176,653.488464 689.719666,655.780640 
	C691.107788,657.250732 692.172302,656.804688 693.505432,655.608704 
	C696.011658,653.360535 698.989441,652.619080 702.551025,653.740356 
	C682.705811,682.551697 657.173889,704.921570 626.217224,721.093933 
	C622.409424,723.083191 618.543945,724.961975 614.348145,726.937256 
z"/>
<path fill="#F8FAFA" opacity="1.000000" stroke="none" 
	d="
M259.232300,553.348267 
	C254.343903,553.549805 250.099564,553.061584 246.521469,550.107178 
	C242.806992,547.040100 240.663132,543.304138 241.792969,538.312195 
	C242.968811,533.116943 246.655579,530.559631 251.539185,529.494995 
	C253.140106,529.145996 254.849503,529.229736 256.509521,529.226501 
	C280.155914,529.180237 303.802307,529.153137 327.448730,529.121460 
	C328.114838,529.120544 328.781525,529.100403 329.446930,529.121887 
	C337.042358,529.366638 342.666412,534.306335 342.627167,540.691162 
	C342.585175,547.515503 337.198151,553.076233 329.637299,553.150269 
	C306.326508,553.378723 283.012726,553.304810 259.232300,553.348267 
z"/>
<path fill="#F8FAFA" opacity="1.000000" stroke="none" 
	d="
M720.917114,552.429016 
	C714.168640,548.532227 711.656982,543.653015 713.246094,538.006531 
	C714.711792,532.798279 719.819702,529.264160 726.382751,529.239258 
	C751.172852,529.145325 775.963318,529.091858 800.753540,529.117615 
	C808.111511,529.125305 813.302795,533.465149 813.739807,539.592651 
	C814.166138,545.571289 809.053345,551.743042 802.526489,552.982117 
	C800.907288,553.289490 799.219604,553.332947 797.563354,553.334229 
	C774.436829,553.352051 751.310181,553.361633 728.183777,553.306519 
	C725.876099,553.300964 723.569458,552.859253 720.917114,552.429016 
z"/>
<path fill="#3F8BB2" opacity="1.000000" stroke="none" 
	d="
M803.946167,475.918335 
	C806.932434,475.935333 809.451721,475.744385 811.920532,476.014587 
	C817.978394,476.677582 822.419983,481.750610 822.206055,487.493500 
	C821.977417,493.631683 817.239746,498.933960 811.250122,498.959503 
	C782.953247,499.080109 754.655212,499.090881 726.358459,498.950714 
	C719.793640,498.918213 715.025879,493.687897 715.007874,487.379028 
	C714.989746,481.019592 720.022034,476.044983 727.052673,476.008453 
	C749.190857,475.893433 771.329895,475.948669 793.468628,475.936646 
	C796.797791,475.934845 800.127014,475.925903 803.946167,475.918335 
z"/>
<path fill="#6ABDE1" opacity="1.000000" stroke="none" 
	d="
M260.000885,475.979004 
	C282.653931,475.979340 304.807312,475.934662 326.960388,475.999664 
	C336.236969,476.026886 341.397888,481.574158 339.868256,489.587250 
	C338.732117,495.539093 334.045380,498.878357 326.377258,498.911255 
	C310.720306,498.978424 295.062927,498.931580 279.405701,498.937988 
	C268.912048,498.942291 258.418274,498.982483 247.924805,498.943573 
	C246.111771,498.936859 244.242126,498.842102 242.497971,498.397919 
	C236.519684,496.875488 232.623093,491.902466 233.022598,486.571655 
	C233.442642,480.966827 238.208984,476.421631 244.513916,476.077301 
	C249.496582,475.805206 254.504425,475.994110 260.000885,475.979004 
z"/>
<path fill="#50A2C9" opacity="1.000000" stroke="none" 
	d="
M649.097717,610.641785 
	C629.458252,642.164673 603.666870,666.724304 571.196228,684.132202 
	C566.969971,686.397949 562.396301,688.021851 557.959717,689.886353 
	C555.744751,690.817261 554.432068,690.306885 554.770569,687.587708 
	C554.811340,687.260132 554.814453,686.917969 554.770569,686.591187 
	C553.525146,677.325989 556.225647,671.441956 565.267395,666.138916 
	C590.954407,651.073059 610.354675,629.172119 626.526611,603.943848 
	C631.829956,608.353149 637.432312,610.434204 644.244873,608.255981 
	C646.216370,607.625549 648.167358,608.135254 649.097717,610.641785 
z"/>
<path fill="#EBD7A7" opacity="1.000000" stroke="none" 
	d="
M546.360596,569.800781 
	C543.475159,570.288391 541.839722,571.992188 541.144165,574.269714 
	C539.882874,578.400391 537.224854,582.017456 535.083679,585.382568 
	C533.090576,588.515015 529.567993,592.598938 524.555237,593.009766 
	C523.370361,593.106873 521.586792,593.279358 521.640320,594.359863 
	C521.966553,600.947815 514.358398,600.958252 512.502563,605.666809 
	C512.326111,606.114502 511.084869,606.662964 510.945526,606.529663 
	C505.539429,601.356201 502.428864,608.076355 497.828735,608.980957 
	C506.418488,586.462280 515.398010,563.903015 524.336792,540.934448 
	C524.262024,540.275940 524.228088,540.026733 524.449524,539.497925 
	C536.900452,534.331787 548.726929,528.598267 560.826294,523.493164 
	C563.225281,522.480957 565.536133,520.880676 568.701294,521.744873 
	C562.448730,538.256836 554.336975,553.822083 546.360596,569.800781 
z"/>
<path fill="#17446A" opacity="1.000000" stroke="none" 
	d="
M703.004700,653.698059 
	C699.165771,654.999634 694.711487,654.089417 692.777222,658.948425 
	C692.099976,660.649597 690.549561,659.814636 689.764404,658.422241 
	C688.023621,655.335205 686.554688,652.967957 683.664185,657.791992 
	C682.138611,660.338074 679.350586,658.007629 677.330383,657.629944 
	C675.119934,657.216736 676.408447,655.178711 677.056091,653.976868 
	C678.193298,651.866577 677.274841,650.143066 676.104858,648.121094 
	C680.277405,641.104736 684.934448,634.439514 689.146606,627.504211 
	C696.851929,614.817627 702.968872,601.345459 707.710571,587.288879 
	C708.799744,584.060059 710.295776,582.784607 713.747864,582.942200 
	C719.730408,583.215332 725.742004,583.201538 731.726624,582.952942 
	C735.394470,582.800476 735.796570,584.093384 734.988831,587.303711 
	C730.071533,606.848389 721.328308,624.673828 710.833130,641.723999 
	C708.395142,645.684692 705.755371,649.521118 703.004700,653.698059 
z"/>
<path fill="#C3A365" opacity="1.000000" stroke="none" 
	d="
M352.090179,703.843018 
	C363.520203,714.094849 375.293884,723.500061 387.300598,732.592285 
	C391.888214,736.066345 397.063141,738.791504 402.090515,741.646484 
	C404.489288,743.008850 404.795074,744.348206 403.584900,746.787415 
	C400.628784,752.745667 397.879150,758.810547 395.202820,764.901184 
	C394.283936,766.992249 393.494995,767.711060 391.206268,766.409363 
	C368.974487,753.765015 348.272797,739.082825 329.988281,720.684570 
	C329.124573,718.677917 330.565125,718.026428 331.486481,717.206787 
	C332.737976,716.093567 334.275360,714.973694 334.428955,713.335144 
	C335.004028,707.201355 339.968658,704.732239 343.921417,701.371094 
	C345.326782,700.176086 346.769745,699.781250 348.830078,700.731567 
	C349.186432,700.894287 349.081329,700.974609 349.044312,700.919800 
	C349.200623,701.169739 349.429321,701.445068 349.918030,701.840271 
	C350.142487,701.989685 350.012604,701.998596 350.009216,701.933594 
	C350.201965,702.170654 350.429657,702.446289 350.917450,702.841370 
	C351.141022,702.991333 351.023132,703.021057 351.007660,702.962280 
	C351.223938,703.223145 351.500793,703.497925 352.090179,703.843018 
z"/>
<path fill="#F4E2BE" opacity="1.000000" stroke="none" 
	d="
M503.513031,499.816528 
	C507.133606,502.126160 510.483185,501.351654 513.595764,499.568390 
	C516.997803,497.619263 520.407166,496.963348 523.630493,499.325165 
	C524.918640,500.269043 521.450012,507.782104 519.122681,509.172882 
	C516.639954,510.656494 514.029175,510.025848 511.411407,509.325317 
	C509.134613,508.716064 506.940796,508.604675 506.989014,512.397400 
	C505.331421,515.081604 502.784241,514.766541 500.603851,514.529480 
	C489.692596,513.343140 480.243622,517.339905 470.637482,521.812744 
	C456.979340,528.172363 443.987610,536.060242 429.041290,540.521606 
	C426.741089,540.929565 424.801575,541.178284 422.111298,541.523254 
	C429.904327,529.526245 437.385193,518.009766 445.095398,506.310425 
	C449.559540,505.910767 453.660034,504.390411 458.079620,505.808411 
	C460.514862,506.589813 463.030121,505.158783 464.167358,502.558502 
	C466.019775,498.322876 469.236053,496.622925 473.712402,496.997833 
	C477.306152,497.298889 479.749939,496.486938 481.541809,492.627136 
	C483.351715,488.728546 488.749420,489.306915 492.015472,486.691132 
	C493.627136,485.400360 495.958527,485.071075 496.372284,482.523804 
	C496.420807,482.225098 496.651276,481.861481 496.906158,481.704742 
	C501.406708,478.936707 505.155334,475.374207 508.582214,471.031677 
	C504.229126,481.751556 499.522705,492.527832 494.443146,504.158539 
	C497.727173,502.564789 500.450012,501.243408 503.513031,499.816528 
z"/>
<path fill="#9F7A39" opacity="1.000000" stroke="none" 
	d="
M782.180786,639.721436 
	C775.363037,634.948914 768.557373,635.087036 762.606445,640.366028 
	C758.979614,643.583313 753.949707,642.216248 752.946411,637.338989 
	C752.914246,636.928589 752.944092,636.955444 752.933044,636.954529 
	C754.311646,635.330994 754.953674,633.345703 755.751282,631.050232 
	C755.874573,630.724426 755.912476,630.317261 756.020752,630.143860 
	C756.270630,629.794678 756.412292,629.618835 756.723450,629.149658 
	C756.892883,628.856384 756.906738,628.938477 756.865356,628.934265 
	C757.537292,628.575073 757.491882,627.836121 757.753784,626.889526 
	C761.859985,615.126343 766.885193,604.058472 769.990051,592.272034 
	C772.449585,582.935303 772.696045,582.996277 782.368591,583.012939 
	C787.200439,583.021301 792.038391,583.204163 796.862061,583.014893 
	C800.546448,582.870239 801.496704,584.067749 800.572021,587.702087 
	C796.043701,605.499512 790.002075,622.750122 782.180786,639.721436 
z"/>
<path fill="#B08845" opacity="1.000000" stroke="none" 
	d="
M429.151184,540.846008 
	C428.941345,539.027527 430.447083,538.799927 431.591217,538.265808 
	C446.369598,531.367371 461.247375,524.675476 475.922882,517.565674 
	C482.692474,514.286072 489.553223,512.495544 497.064514,512.992615 
	C500.046967,513.189941 503.057617,512.961487 506.518250,512.858154 
	C510.027313,512.882446 513.073486,512.975586 516.569580,513.146484 
	C518.838989,515.044861 518.258240,517.231873 517.913330,519.355774 
	C517.459656,522.149475 516.735657,524.904541 516.735840,527.760315 
	C516.736206,532.696167 516.076416,538.034363 523.432861,538.375671 
	C524.065186,538.405029 524.395264,539.227966 524.431030,540.230591 
	C524.264832,540.577515 524.224548,540.520386 524.260254,540.522827 
	C515.817017,540.638611 507.338074,540.751953 498.390564,540.795105 
	C485.920349,540.230530 473.914337,540.579163 461.474884,540.694031 
	C450.566925,540.902283 440.094360,540.956726 429.151184,540.846008 
z"/>
<path fill="#6ABDE1" opacity="1.000000" stroke="none" 
	d="
M649.257263,610.767883 
	C646.796753,608.486328 644.371094,608.787781 642.051697,610.634399 
	C640.172424,612.130615 638.579346,612.216309 636.906860,610.441223 
	C636.098633,609.583374 634.980652,608.679810 633.891296,609.143677 
	C629.018982,611.218018 628.007996,608.022827 626.993347,604.114868 
	C634.886108,589.120361 642.427246,574.228088 648.227112,558.157959 
	C654.948120,555.057190 661.724243,554.561279 668.647766,555.890808 
	C670.800232,556.304138 672.745544,557.223633 673.268494,560.118103 
	C673.141785,560.584290 673.234375,560.839417 673.121948,560.915405 
	C672.875610,561.129395 672.741699,561.267334 672.692017,561.681030 
	C672.641541,562.504211 672.506836,563.051697 672.167847,563.807251 
	C671.843445,564.149170 671.723206,564.283081 671.665588,564.679688 
	C666.237305,581.078735 658.434937,596.089905 649.257263,610.767883 
z"/>
<path fill="#DCC38C" opacity="1.000000" stroke="none" 
	d="
M349.056458,700.583008 
	C344.883881,701.483948 337.698395,707.794617 336.878937,711.877808 
	C336.099152,715.763306 333.911102,718.348206 330.065186,720.070435 
	C317.338654,708.494019 306.647339,695.078186 297.031250,680.394043 
	C296.628815,679.636963 296.479767,679.157104 296.617554,678.230774 
	C304.481476,673.986633 310.474060,666.301575 320.671753,666.828491 
	C328.209290,675.726868 334.834351,684.983704 342.393555,693.518188 
	C344.487579,695.882446 347.084869,697.706787 349.056458,700.583008 
z"/>
<path fill="#6ABDE1" opacity="1.000000" stroke="none" 
	d="
M427.036926,599.799622 
	C432.612305,607.975708 437.915680,616.007019 443.782379,623.675293 
	C445.719849,626.207703 448.098999,628.222351 450.163452,630.569946 
	C452.042877,632.707031 452.163940,634.347839 450.986481,636.750061 
	C448.938416,640.928406 446.968414,645.172729 445.380066,649.540100 
	C444.109161,653.034729 442.820740,653.457520 439.953644,650.988098 
	C432.607544,644.660767 425.904724,637.742920 419.868103,630.172302 
	C414.051636,622.877747 408.743408,615.226501 403.933380,606.886230 
	C402.727539,603.740295 402.936462,600.695679 405.904022,599.807129 
	C412.300018,597.892090 418.852661,595.755371 426.117340,598.289307 
	C426.558136,598.397461 426.519775,598.654785 426.390564,598.639832 
	C426.208771,599.074524 426.380188,599.421936 427.036926,599.799622 
z"/>
<path fill="#9BDEF1" opacity="1.000000" stroke="none" 
	d="
M390.193359,578.203003 
	C383.879669,565.169556 380.288940,551.524902 377.007843,537.385742 
	C376.954010,535.657654 377.104462,534.323181 376.864380,533.011414 
	C375.919678,527.849121 376.739105,526.138367 381.444427,524.361816 
	C384.069092,523.370850 386.833588,522.780334 389.376038,521.511230 
	C390.782257,520.809265 392.369659,520.904846 393.648804,521.840454 
	C395.356049,523.088928 397.324188,523.216980 399.562988,523.770508 
	C403.295837,538.596252 406.544342,553.243713 412.042847,567.648804 
	C410.957550,568.739563 409.783325,569.425354 408.503510,569.697510 
	C401.793213,571.124634 396.130005,574.684448 390.193359,578.203003 
z"/>
<path fill="#7ACDE9" opacity="1.000000" stroke="none" 
	d="
M673.400757,560.294495 
	C669.035156,555.603394 663.369324,556.898376 658.201477,557.324829 
	C655.274231,557.566406 652.356750,558.003967 648.908325,557.909424 
	C652.884644,544.664185 656.439392,531.208130 659.040649,517.152832 
	C659.582031,516.642700 660.720825,517.126831 659.688110,515.858154 
	C659.515198,514.738770 659.658386,513.718079 659.955566,512.339600 
	C661.231873,510.675140 662.681702,509.520325 664.348572,509.780884 
	C670.932495,510.810059 677.725098,511.027374 683.965942,514.666870 
	C684.097900,515.504639 684.069519,515.937378 684.005005,516.693542 
	C683.983765,517.458862 684.000549,517.900635 684.037903,518.673401 
	C682.160767,533.069275 678.234863,546.619324 673.400757,560.294495 
z"/>
<path fill="#031327" opacity="1.000000" stroke="none" 
	d="
M582.961426,240.547668 
	C570.806091,237.994766 558.388367,236.490402 545.431396,235.602966 
	C541.990417,233.937332 538.771851,234.611298 535.315186,234.745605 
	C522.957214,235.190018 510.891907,234.872528 498.432983,235.899048 
	C496.512604,234.218781 495.001038,233.376999 493.190552,235.913437 
	C491.571716,236.420471 490.144867,236.671494 488.357178,236.845993 
	C487.779358,234.799362 488.860718,232.101654 485.325409,231.988419 
	C483.500610,231.929962 482.512665,230.804871 482.410889,229.176346 
	C482.293488,227.296631 483.520630,226.006790 485.235535,225.520309 
	C486.643799,225.120819 488.174988,225.030167 489.652954,225.021530 
	C497.477234,224.975845 505.301941,224.985550 513.126465,225.004974 
	C516.888367,225.014313 520.092712,224.267380 520.919922,219.846420 
	C521.396667,217.298279 523.288269,217.088150 525.444763,216.957794 
	C528.046143,216.800522 528.959961,218.069153 529.313660,220.379654 
	C529.727966,223.086121 531.330933,224.009033 534.171997,224.131516 
	C537.433350,224.272079 541.463013,224.120621 541.188110,229.510803 
	C541.089722,231.439133 543.077759,232.729095 544.655579,232.307480 
	C548.261047,231.344055 551.156128,232.769058 554.131226,234.193253 
	C559.196899,236.618271 563.055603,233.651962 566.904480,231.218323 
	C568.432373,230.252228 568.602539,228.051605 567.327820,226.794876 
	C565.958923,225.445343 563.962280,225.519485 562.412048,226.951736 
	C561.963196,227.366455 561.853821,228.141006 561.567078,228.740204 
	C560.870117,230.196518 559.950989,231.452469 558.122437,230.602463 
	C556.584534,229.887604 556.544189,227.744415 557.160522,227.150070 
	C561.616943,222.852356 558.941956,216.977051 560.765869,212.153412 
	C561.212402,210.972458 560.951721,209.361298 562.789062,209.144028 
	C564.325439,208.962326 565.143311,209.888107 566.030334,211.002151 
	C568.247253,213.786331 570.189880,216.667114 569.976257,220.402603 
	C569.807190,223.358322 571.283630,224.142685 573.927063,224.029999 
	C576.247192,223.931122 578.629028,223.832397 580.894592,224.234680 
	C584.415466,224.859818 585.823669,227.434494 585.480835,230.814072 
	C585.156128,234.015228 583.209290,235.286469 579.952393,235.046906 
	C576.912109,234.823273 573.842407,234.999100 570.721802,235.616211 
	C574.508789,238.199173 580.101196,235.327911 582.961426,240.547668 
z"/>
<path fill="#967233" opacity="1.000000" stroke="none" 
	d="
M536.672241,778.329346 
	C538.045776,778.730408 538.941040,779.062134 539.835205,779.396423 
	C535.176270,782.940613 530.460388,785.289246 525.176025,780.425598 
	C524.604614,779.899780 523.554138,779.873718 522.865967,780.510559 
	C522.033813,781.280701 522.733521,781.986389 523.128113,782.684448 
	C524.799500,785.641479 523.306702,785.919006 520.655151,787.247986 
	C515.360779,789.901672 509.301575,790.090454 504.280090,793.145508 
	C502.556732,794.193970 500.769318,793.912415 498.974335,793.995544 
	C497.013306,794.086426 494.734650,793.673340 494.176117,796.375244 
	C493.627045,799.031433 495.569031,799.735413 497.576813,800.382446 
	C498.340912,800.628662 498.997650,801.208008 499.936829,801.937988 
	C488.480621,802.018799 477.149231,799.424011 465.766907,797.121643 
	C463.037415,796.569580 462.846130,795.435974 464.357025,793.458130 
	C468.990997,787.391907 473.622070,781.323486 478.268921,775.267090 
	C480.405884,772.481995 482.815521,774.716125 485.091370,774.973083 
	C492.752289,775.838135 500.405670,776.770203 508.446869,777.802246 
	C511.374512,776.714539 513.715210,778.203491 516.516235,778.404907 
	C523.321777,778.310059 529.757874,778.285034 536.672241,778.329346 
z"/>
<path fill="#DCC38C" opacity="1.000000" stroke="none" 
	d="
M461.666199,698.243530 
	C463.210388,698.106934 464.539673,697.766724 465.655640,698.859924 
	C470.082550,703.196594 476.417816,701.613464 477.903595,695.561462 
	C478.673096,692.427063 481.489258,692.584473 483.601990,691.039612 
	C476.949219,705.856079 468.458862,719.932739 460.582977,734.336853 
	C451.740692,750.508484 442.571960,766.501648 433.308624,782.816650 
	C431.824097,784.114868 430.448761,784.750000 428.421967,784.182983 
	C428.576294,782.493103 429.073578,780.990662 429.788635,779.228882 
	C430.485413,778.539795 430.495728,777.928894 430.718079,777.084229 
	C437.909576,756.260986 446.724243,736.386963 454.492126,716.104431 
	C456.749115,710.211426 459.097778,704.353516 461.666199,698.243530 
z"/>
<path fill="#CBF1FB" opacity="1.000000" stroke="none" 
	d="
M369.145416,467.735870 
	C376.152740,466.979340 383.095795,466.436066 388.582947,472.003601 
	C390.428284,473.875977 392.311249,471.941193 394.551208,471.999695 
	C395.628998,483.035370 396.332336,494.083130 396.997589,505.571838 
	C391.730286,509.258362 385.981567,507.338440 380.467438,507.575134 
	C377.818390,507.688812 375.169739,507.248352 372.478607,509.028534 
	C369.724609,495.462738 369.341095,481.787109 369.145416,467.735870 
z"/>
<path fill="#1E527B" opacity="1.000000" stroke="none" 
	d="
M387.110352,690.406433 
	C387.064606,689.983337 387.143463,689.785461 387.276550,689.737183 
	C389.685699,688.863037 391.777313,692.608276 394.471893,690.018677 
	C396.733185,687.845459 395.404297,684.921570 396.633301,682.596863 
	C397.398010,681.150269 397.532837,679.121460 398.645508,678.151184 
	C403.498413,673.919556 401.897980,670.645508 397.593323,667.428101 
	C397.183929,667.122192 397.213989,666.228394 397.063049,665.230469 
	C406.481201,672.746155 415.771576,680.774719 426.385193,687.063477 
	C428.584534,688.366699 429.063507,689.997131 427.787537,692.463562 
	C425.119995,697.619934 422.660004,702.890869 420.307404,708.200134 
	C418.934875,711.297546 417.343689,712.113220 414.258575,710.176758 
	C404.835175,704.261963 395.592651,698.118835 387.110352,690.406433 
z"/>
<path fill="#F4E2BE" opacity="1.000000" stroke="none" 
	d="
M267.405640,623.077576 
	C261.771973,611.012878 258.823761,598.328369 255.741714,585.678528 
	C255.131897,583.175598 256.303833,582.944580 258.294678,582.962891 
	C266.097809,583.034912 273.902283,583.059387 281.705231,582.986023 
	C283.736420,582.966980 284.547546,583.629089 284.961853,585.700745 
	C285.871277,590.248047 287.165192,594.718506 288.346375,599.632202 
	C286.249573,601.405151 285.138580,603.673950 283.572937,605.540039 
	C282.942719,606.291260 282.653168,607.576843 281.858429,607.901428 
	C275.783173,610.382263 273.155640,615.740784 270.427277,621.084656 
	C269.916199,622.085693 268.933380,622.827576 267.405640,623.077576 
z"/>
<path fill="#7ACDE9" opacity="1.000000" stroke="none" 
	d="
M389.869080,578.424438 
	C394.823395,571.525269 402.748779,570.479126 409.566193,567.407471 
	C410.042145,567.192993 410.810120,567.626526 411.760071,567.893616 
	C416.742310,577.983154 420.855530,588.202209 426.450195,598.079895 
	C420.710175,598.945557 414.859650,599.467773 409.015289,600.051819 
	C405.648438,600.388306 404.146637,602.484131 403.929382,606.130432 
	C398.073120,597.890503 393.803925,588.431274 389.869080,578.424438 
z"/>
<path fill="#EBD7A7" opacity="1.000000" stroke="none" 
	d="
M293.221405,673.765015 
	C286.798615,665.812866 282.194214,656.664062 277.386780,647.258911 
	C277.247040,645.752991 277.116302,644.569275 276.503052,643.567444 
	C274.483276,640.267700 274.653137,637.930969 278.621033,636.048767 
	C281.462769,634.700867 281.897491,630.748169 284.722260,629.020874 
	C286.130157,628.159851 287.300568,626.931396 288.645752,625.958862 
	C294.983124,621.377075 295.463898,621.506226 299.084900,628.626099 
	C299.448578,628.705200 299.314636,628.774414 299.315369,628.699036 
	C299.170258,629.012329 299.258698,629.337402 299.780945,629.802795 
	C303.982635,637.399597 307.984039,644.792908 312.056152,652.531311 
	C306.926117,652.008057 302.095154,654.308533 297.020782,654.645264 
	C290.959564,655.047729 288.763062,659.124084 291.354340,664.569397 
	C292.693054,667.382690 294.173615,670.188416 293.221405,673.765015 
z"/>
<path fill="#AEE4F2" opacity="1.000000" stroke="none" 
	d="
M663.617249,468.465912 
	C672.036926,467.256775 679.719116,463.707275 688.400940,462.993347 
	C689.066345,474.420349 688.166382,485.805847 687.031921,497.582092 
	C682.485779,494.468658 677.398071,493.657532 671.834717,493.387421 
	C667.717712,493.187500 666.045776,496.982574 662.321533,497.194183 
	C662.499695,487.612732 662.975037,478.229858 663.617249,468.465912 
z"/>
<path fill="#F2DDB2" opacity="1.000000" stroke="none" 
	d="
M299.367615,628.342468 
	C298.571594,628.672302 297.617706,628.393250 297.410706,627.572449 
	C296.140625,622.536194 292.886139,624.440735 290.882080,626.245850 
	C287.596375,629.205444 282.409332,630.560730 281.761017,636.014404 
	C281.724670,636.320068 281.501343,636.841980 281.326660,636.858643 
	C273.699493,637.583130 278.131134,642.889099 277.516571,646.628418 
	C273.074799,639.561523 270.369598,631.520325 267.060791,623.368225 
	C269.601624,620.144592 271.957153,617.240173 272.538483,613.207764 
	C272.707092,612.038574 273.845032,610.157104 274.684296,610.074097 
	C280.338806,609.514465 282.091278,604.703491 284.991913,601.148499 
	C285.702576,600.277527 286.578369,600.026367 288.001953,600.040466 
	C288.650452,600.689392 288.910278,601.334595 289.139618,602.244751 
	C289.251129,603.167725 289.492401,603.801758 289.793182,604.735718 
	C293.097229,612.659546 296.191925,620.319641 299.367615,628.342468 
z"/>
<path fill="#031327" opacity="1.000000" stroke="none" 
	d="
M466.974731,400.842377 
	C477.047424,395.884796 481.905121,386.536896 485.759308,376.315063 
	C487.275452,372.293976 489.285645,368.459198 491.276550,364.291138 
	C494.873688,364.598694 496.038574,361.942169 497.517365,359.802582 
	C498.511505,358.364197 499.731262,356.966919 501.503937,357.340363 
	C503.819275,357.828125 502.974731,360.037292 502.945312,361.522675 
	C502.881592,364.737915 504.215027,369.519653 497.773956,366.608673 
	C496.028870,365.819946 496.292114,367.550751 496.370331,368.743683 
	C496.942810,377.476196 497.644653,386.206116 497.936188,394.949188 
	C498.135101,400.914917 496.815704,401.867584 491.113403,401.041840 
	C483.223633,399.899292 475.333008,399.210785 466.974731,400.842377 
z"/>
<path fill="#E6CE98" opacity="1.000000" stroke="none" 
	d="
M292.991943,674.018188 
	C291.702789,670.541687 291.354248,666.843384 288.725067,663.683777 
	C286.112030,660.543457 290.587921,653.372375 295.182739,653.099426 
	C298.990997,652.873291 302.695679,653.082153 306.058075,650.596619 
	C308.612762,648.708130 309.535187,652.263977 311.775696,652.853455 
	C312.126831,652.876465 312.071533,652.905090 312.084503,652.877075 
	C312.981934,654.893311 313.765839,656.997986 315.737122,658.770752 
	C315.965363,659.015259 316.008514,659.012024 315.994080,659.028259 
	C316.455505,659.447205 316.476013,660.058899 316.901001,660.775696 
	C317.116028,660.967773 317.027313,660.962158 317.034698,660.918335 
	C317.170410,661.057373 317.298706,661.240234 317.627258,661.691650 
	C317.827515,661.960327 318.125244,662.183350 318.118530,662.369263 
	C318.170715,662.951050 318.328735,663.300293 318.823212,663.789490 
	C319.336517,664.258606 319.627960,664.533875 320.018341,665.177124 
	C320.325256,665.732849 320.533203,665.920471 320.895325,666.498962 
	C312.661224,668.145569 306.801239,674.663147 299.134003,677.419312 
	C298.665741,677.587585 298.194214,677.746704 297.359924,677.955444 
	C296.809845,678.191467 296.624023,678.382202 296.082489,678.391235 
	C295.726807,678.209473 295.859131,678.167969 295.857849,678.237305 
	C295.819000,677.924255 295.653687,677.608826 295.138824,677.192139 
	C294.916992,677.023987 294.988220,677.019470 294.971191,677.050781 
	C294.381348,676.234253 294.121735,675.205383 293.196350,674.222534 
	C292.970123,674.014709 293.000641,674.003418 292.991943,674.018188 
z"/>
<path fill="#AEE4F2" opacity="1.000000" stroke="none" 
	d="
M372.001282,509.422272 
	C373.116516,505.618896 374.885864,505.087433 378.600677,505.686920 
	C384.279602,506.603455 390.206207,505.985565 396.493591,506.015930 
	C397.080383,506.436035 397.201263,506.859314 397.245819,507.606964 
	C396.811035,508.096283 396.693146,508.356445 397.100281,508.818787 
	C398.206970,513.665588 399.067841,518.420654 399.892883,523.588989 
	C397.381500,525.059265 394.827057,526.883362 393.094025,522.909851 
	C392.765442,522.156555 391.469940,521.798584 390.903900,522.305542 
	C387.804779,525.081238 383.441498,524.503601 380.099487,526.561646 
	C377.787170,527.985596 376.226440,529.592224 377.677979,532.596558 
	C378.247650,533.775635 378.205627,535.175537 377.303467,536.709106 
	C374.511414,528.092407 373.184387,518.979126 372.001282,509.422272 
z"/>
<path fill="#031327" opacity="1.000000" stroke="none" 
	d="
M602.872803,261.112488 
	C600.683411,255.319916 598.770691,249.486465 597.086487,243.587769 
	C596.663696,242.107117 597.799255,241.233215 599.360229,240.936600 
	C600.654846,240.690582 602.049744,240.405685 603.127502,239.713379 
	C604.900391,238.574509 607.128967,237.166550 607.303284,235.171371 
	C607.457581,233.405777 604.194336,234.036942 603.450378,232.875397 
	C600.916931,228.919647 599.102112,224.542130 594.267395,222.454422 
	C593.648254,222.187073 592.829834,217.996216 595.823730,217.198883 
	C598.225708,216.559204 600.871826,216.448532 601.272888,220.227020 
	C601.591858,223.232758 603.493530,224.289536 606.517700,224.053970 
	C609.656189,223.809509 612.848694,224.221375 615.980652,223.938385 
	C619.130615,223.653763 621.435303,224.764465 623.737244,227.294403 
	C624.091187,227.967972 623.957275,228.420410 623.511230,229.123657 
	C619.479980,230.739975 616.675293,232.758438 617.879639,237.814560 
	C616.814026,244.768692 612.665466,249.569778 608.056885,254.431808 
	C606.565979,254.940323 604.460022,254.135849 605.096558,257.059692 
	C605.116943,258.941010 604.724609,260.280121 602.872803,261.112488 
z"/>
<path fill="#9BDEF1" opacity="1.000000" stroke="none" 
	d="
M661.872192,497.370544 
	C668.393127,488.604828 676.747742,492.553864 684.564941,493.444336 
	C686.986755,493.720215 685.373108,496.315491 686.677612,497.724609 
	C686.968384,503.648346 686.012268,509.190338 684.461426,514.885681 
	C676.332520,514.423035 669.015564,510.205688 660.504639,511.975281 
	C660.646423,507.236328 661.183228,502.490936 661.872192,497.370544 
z"/>
<path fill="#B08845" opacity="1.000000" stroke="none" 
	d="
M597.458252,313.123291 
	C595.585632,309.048035 592.130493,309.778168 589.169067,310.271790 
	C586.437500,310.727081 585.902283,313.153198 585.985657,315.677277 
	C586.108704,319.405151 584.275085,321.187103 580.104248,320.904297 
	C583.439026,313.205933 587.195312,305.542206 591.020935,297.532440 
	C591.994751,294.428101 593.526917,291.963470 595.068237,289.176697 
	C595.382507,288.997314 595.727844,288.734802 595.786194,288.525879 
	C595.589172,286.620697 596.457703,285.448669 597.928894,284.261169 
	C598.503174,283.612732 598.805847,283.134186 599.160156,282.370911 
	C599.232422,278.951599 601.202820,276.568817 602.403320,273.896606 
	C604.831726,268.491333 608.158081,263.553009 610.631836,258.159332 
	C611.488220,256.292175 612.368835,254.156799 615.222290,253.843597 
	C617.357910,255.374496 617.046875,257.123932 616.324219,258.846680 
	C615.126648,261.701813 614.579102,264.769073 613.213074,267.991638 
	C613.055603,268.367523 613.123657,268.748291 612.999146,268.896301 
	C611.603027,271.371887 610.769836,273.845367 610.220581,276.783356 
	C610.039246,277.093018 610.020081,277.014709 610.059692,277.007507 
	C609.048828,278.845154 608.680359,280.882660 608.167725,283.195129 
	C607.916931,283.440002 607.996338,283.757599 607.883423,283.876160 
	C605.604736,290.207855 603.538025,296.455109 601.202148,303.011353 
	C601.059692,303.363983 601.164551,303.741180 601.044739,303.895996 
	C599.878723,305.384674 600.120239,307.157959 599.213379,308.900330 
	C599.052063,309.206268 599.124023,309.690735 598.990112,309.895813 
	C598.127747,310.991119 598.948303,312.418549 597.458252,313.123291 
z"/>
<path fill="#F4E2BE" opacity="1.000000" stroke="none" 
	d="
M615.265381,253.665649 
	C609.868530,263.088623 604.800476,272.379578 599.472168,281.878418 
	C597.405640,279.761292 597.991638,276.264923 595.111084,274.114319 
	C594.685425,273.743469 594.557861,273.578430 594.664429,273.205872 
	C594.898682,272.998352 595.172424,272.877472 595.163208,272.728149 
	C595.151978,272.139496 595.303833,271.758118 595.836304,271.227081 
	C597.061707,269.664154 598.038452,268.300507 599.062866,266.621582 
	C599.211731,265.969452 599.372375,265.663818 599.770569,265.197815 
	C600.721497,263.937439 601.494507,262.868683 602.389526,261.488739 
	C603.154297,260.151764 603.796997,259.126007 604.316345,257.814392 
	C604.481323,256.119568 605.178894,255.019974 606.819458,254.231140 
	C611.017029,249.344452 614.024841,244.048279 617.208618,238.468369 
	C617.208069,234.117584 619.579346,231.583710 622.811035,229.192200 
	C623.405090,228.704803 623.702026,228.412704 624.068359,227.805145 
	C625.962036,224.780930 627.786316,222.072159 629.820923,219.093018 
	C630.460083,218.559372 630.925110,218.471619 631.735596,218.724686 
	C629.455688,225.379837 626.861755,231.846329 624.085754,238.617981 
	C621.010498,243.723114 619.210327,249.144745 615.265381,253.665649 
z"/>
<path fill="#031327" opacity="1.000000" stroke="none" 
	d="
M544.682373,210.150238 
	C545.354126,213.861176 546.615479,216.512283 550.469055,216.939087 
	C553.795898,217.307571 552.848633,219.905258 552.973816,221.903671 
	C553.099243,223.905396 552.244263,225.072937 550.099548,224.975235 
	C547.915161,224.875717 545.294800,225.768768 544.828796,222.181900 
	C544.515564,219.770126 543.401550,217.660553 540.630615,217.406219 
	C536.422607,217.019989 536.735046,214.086090 537.103210,211.266556 
	C537.541504,207.910278 540.317200,209.251144 542.230225,209.069443 
	C542.960205,209.000107 543.746704,209.525116 544.682373,210.150238 
z"/>
<path fill="#C3A365" opacity="1.000000" stroke="none" 
	d="
M427.818054,784.237976 
	C429.372162,783.144226 430.794830,782.848938 432.697510,783.033936 
	C432.436829,784.487427 431.801636,785.914124 431.122986,787.676147 
	C430.949219,791.966736 428.238953,794.878174 426.895416,798.342834 
	C426.020020,800.600220 424.408905,802.586182 424.108093,805.353760 
	C421.980103,808.526794 420.137177,811.505310 418.086548,814.752991 
	C416.204346,815.000549 416.514496,813.823792 416.842163,812.494629 
	C420.588837,802.959839 424.072937,793.720093 427.818054,784.237976 
z"/>
<path fill="#A68040" opacity="1.000000" stroke="none" 
	d="
M424.091370,805.385864 
	C422.338959,802.039307 424.902344,799.563782 426.154999,796.805176 
	C427.455353,793.941406 429.058990,791.215454 430.804749,788.220337 
	C432.754791,789.036926 433.337494,788.365967 434.388245,786.765625 
	C435.730255,784.721619 435.913757,781.442871 439.599182,781.003906 
	C435.441010,789.502563 429.772552,797.280701 424.091370,805.385864 
z"/>
<path fill="#031327" opacity="1.000000" stroke="none" 
	d="
M507.318909,408.134583 
	C504.781616,412.717377 501.875061,417.352966 498.707581,422.191772 
	C498.498138,419.947662 498.492798,417.604614 497.333801,415.236877 
	C496.559265,413.654572 494.920013,411.373413 497.057739,409.799286 
	C499.017792,408.355988 501.160065,406.023010 504.097870,408.364441 
	C504.996185,409.080414 506.007599,408.454376 507.318909,408.134583 
z"/>
<path fill="#031327" opacity="1.000000" stroke="none" 
	d="
M494.105896,428.411194 
	C490.233032,435.370850 485.970337,442.151215 481.409607,449.109375 
	C481.300262,443.522095 482.787354,438.362183 487.757538,434.774200 
	C488.757416,434.052399 490.345215,433.474823 489.151215,431.731049 
	C488.275177,430.451691 487.340454,428.972076 488.657715,427.716278 
	C490.320953,426.130615 492.048859,427.718658 494.105896,428.411194 
z"/>
<path fill="#C3A365" opacity="1.000000" stroke="none" 
	d="
M615.085327,254.159698 
	C616.928711,248.445938 619.624451,243.489319 623.563843,238.981644 
	C620.455872,248.558350 617.007935,258.193573 613.307861,268.098145 
	C613.230591,265.360443 613.915527,262.459137 615.175903,259.738770 
	C616.004395,257.950500 616.272034,256.274139 615.085327,254.159698 
z"/>
<path fill="#B08845" opacity="1.000000" stroke="none" 
	d="
M551.002380,454.619141 
	C548.671509,452.073120 551.279602,449.871277 552.003784,447.520599 
	C555.170105,437.241852 558.573730,427.035828 561.945312,416.821289 
	C562.242004,415.922363 562.930847,415.152863 563.753296,414.145386 
	C559.778259,427.414062 555.487427,440.860657 551.002380,454.619141 
z"/>
<path fill="#B08845" opacity="1.000000" stroke="none" 
	d="
M576.349792,377.881775 
	C575.214539,371.826508 579.335693,366.843628 580.720825,361.123138 
	C581.768188,356.797852 582.700989,352.134827 585.868164,348.206055 
	C583.700989,358.149261 579.848572,367.796997 576.349792,377.881775 
z"/>
<path fill="#031327" opacity="1.000000" stroke="none" 
	d="
M558.609497,200.755585 
	C556.502563,200.789505 554.366760,201.815445 553.353027,199.696609 
	C552.645203,198.217178 552.664734,196.430283 553.846619,195.032455 
	C554.948242,193.729568 556.691101,193.622940 557.964905,194.168350 
	C561.434265,195.653900 560.190063,198.209930 558.609497,200.755585 
z"/>
<path fill="#031327" opacity="1.000000" stroke="none" 
	d="
M285.017456,436.927490 
	C285.617126,433.765442 286.598450,430.667389 287.806702,427.289734 
	C289.399933,428.937347 289.689484,431.226562 289.936279,433.447998 
	C290.315125,436.857391 289.031494,438.526886 285.017456,436.927490 
z"/>
<path fill="#A68040" opacity="1.000000" stroke="none" 
	d="
M461.499634,540.922119 
	C463.828674,539.156250 466.896698,540.072632 469.815826,540.054993 
	C478.958618,539.999878 488.102936,540.189148 497.584351,540.504333 
	C485.934631,540.815369 473.947205,540.905823 461.499634,540.922119 
z"/>
<path fill="#031327" opacity="1.000000" stroke="none" 
	d="
M311.239227,438.644348 
	C311.081421,437.928070 311.036377,437.600006 311.030365,437.271210 
	C310.991516,435.142090 311.276520,432.920959 314.023956,433.224579 
	C317.062134,433.560364 316.140961,436.303009 315.819061,437.956879 
	C315.246490,440.898560 313.254181,440.264099 311.239227,438.644348 
z"/>
<path fill="#031327" opacity="1.000000" stroke="none" 
	d="
M510.225830,347.335022 
	C509.610535,346.394836 509.040924,345.637329 509.086426,344.918762 
	C509.203125,343.074829 508.048340,340.764771 510.054108,339.517548 
	C511.473816,338.634766 511.930237,340.275665 512.201050,341.331390 
	C512.802124,343.674500 514.709656,346.435089 510.225830,347.335022 
z"/>
<path fill="#C3A365" opacity="1.000000" stroke="none" 
	d="
M601.308228,303.094360 
	C601.985046,296.687988 604.826294,290.638367 607.507080,284.222412 
	C605.699341,290.271393 603.628052,296.548065 601.308228,303.094360 
z"/>
<path fill="#B08845" opacity="1.000000" stroke="none" 
	d="
M592.400391,329.917236 
	C592.400146,325.205688 593.231079,320.438507 596.645691,316.188477 
	C595.534424,320.572723 594.107666,325.133057 592.400391,329.917236 
z"/>
<path fill="#967233" opacity="1.000000" stroke="none" 
	d="
M416.867065,812.435547 
	C417.203918,813.006470 417.303070,813.813477 417.640564,814.821289 
	C416.987732,817.664062 415.262573,819.751587 412.950012,821.582520 
	C414.176453,818.612244 415.402893,815.641907 416.867065,812.435547 
z"/>
<path fill="#031327" opacity="1.000000" stroke="none" 
	d="
M281.927307,444.961823 
	C282.220459,444.936646 282.574921,444.863495 282.878662,444.956329 
	C284.207794,445.362427 286.269775,442.959076 286.889191,445.894775 
	C287.170959,447.230042 286.954895,448.619812 285.160156,448.896515 
	C282.676575,449.279388 281.897308,447.919891 281.955536,445.309143 
	C281.935608,444.900208 281.965302,444.990265 281.927307,444.961823 
z"/>
<path fill="#B08845" opacity="1.000000" stroke="none" 
	d="
M546.292053,468.884705 
	C546.202087,464.939697 547.002014,460.926727 549.817383,457.221252 
	C549.572937,461.086823 547.901672,464.808807 546.292053,468.884705 
z"/>
<path fill="#031327" opacity="1.000000" stroke="none" 
	d="
M537.977905,361.110657 
	C537.112915,363.284210 535.827026,365.422424 534.255981,367.734985 
	C533.965942,366.919250 534.211975,365.844757 533.912354,364.953857 
	C532.668579,361.256042 534.499634,360.632599 537.977905,361.110657 
z"/>
<path fill="#B08845" opacity="1.000000" stroke="none" 
	d="
M588.353760,342.241638 
	C587.928345,338.108765 589.454407,334.177277 591.893188,330.229034 
	C591.748779,334.233551 589.997437,338.038788 588.353760,342.241638 
z"/>
<path fill="#B08845" opacity="1.000000" stroke="none" 
	d="
M564.360107,413.273743 
	C563.930908,409.122742 565.425903,405.172577 567.921265,401.241150 
	C567.831421,405.279724 565.943542,409.050446 564.360107,413.273743 
z"/>
<path fill="#031327" opacity="1.000000" stroke="none" 
	d="
M324.819580,424.066101 
	C324.691681,425.590759 324.165344,427.095428 323.375824,428.818909 
	C321.612488,428.320374 320.772827,427.164185 321.191864,425.492584 
	C321.622650,423.773987 323.140198,424.083649 324.819580,424.066101 
z"/>
<path fill="#031327" opacity="1.000000" stroke="none" 
	d="
M508.199280,406.444824 
	C507.900848,406.352631 507.598022,406.232361 507.313568,406.078186 
	C505.888489,405.305725 504.263611,404.604675 504.469452,402.607544 
	C504.552887,401.797852 505.378540,401.127930 506.248047,401.275085 
	C508.967590,401.735352 507.602692,404.093689 508.205322,406.013611 
	C508.280640,406.444458 508.203400,406.401062 508.199280,406.444824 
z"/>
<path fill="#DCC38C" opacity="1.000000" stroke="none" 
	d="
M632.298828,218.700592 
	C631.600769,218.883514 631.151855,218.853699 630.367065,218.823273 
	C631.214172,216.752609 632.397034,214.682571 633.794250,212.307404 
	C634.356262,212.584671 634.500061,213.213684 634.263000,214.350464 
	C633.573425,216.037018 633.060730,217.262436 632.298828,218.700592 
z"/>
<path fill="#B08845" opacity="1.000000" stroke="none" 
	d="
M568.467529,400.982788 
	C567.802063,398.216553 568.414368,395.542206 570.810791,393.113525 
	C570.878967,395.711334 569.816467,398.247650 568.467529,400.982788 
z"/>
<path fill="#C3A365" opacity="1.000000" stroke="none" 
	d="
M610.300049,276.855225 
	C609.994690,274.304932 609.955383,271.518402 612.584229,269.237976 
	C612.103394,271.568726 611.332092,274.093079 610.300049,276.855225 
z"/>
<path fill="#B08845" opacity="1.000000" stroke="none" 
	d="
M573.296143,386.892456 
	C572.657166,383.896210 573.523254,380.993896 575.844604,378.219971 
	C575.986694,381.102051 574.399048,383.753937 573.296143,386.892456 
z"/>
<path fill="#031327" opacity="1.000000" stroke="none" 
	d="
M475.634277,457.017822 
	C475.580078,457.931824 475.121765,458.839508 474.378052,459.873840 
	C472.905640,459.808746 470.952698,460.235291 471.427643,458.217102 
	C471.874786,456.316986 473.879883,457.233429 475.634277,457.017822 
z"/>
<path fill="#26618C" opacity="1.000000" stroke="none" 
	d="
M634.296875,214.565201 
	C634.064026,214.189926 634.041992,213.568253 634.014282,212.474426 
	C634.268433,210.321609 635.147644,208.984756 637.145264,208.072754 
	C636.266052,210.154770 635.386841,212.236786 634.296875,214.565201 
z"/>
<path fill="#031327" opacity="1.000000" stroke="none" 
	d="
M529.632202,374.009827 
	C529.455017,375.005463 528.879211,375.997040 528.068604,377.156555 
	C526.835205,376.871582 525.349792,376.489746 525.637268,375.214996 
	C526.075745,373.270355 527.966797,374.275879 529.632202,374.009827 
z"/>
<path fill="#EBD7A7" opacity="1.000000" stroke="none" 
	d="
M315.911682,658.680542 
	C312.872894,658.505554 312.362671,656.132141 312.079834,653.228210 
	C313.350983,654.681335 314.604492,656.513550 315.911682,658.680542 
z"/>
<path fill="#967233" opacity="1.000000" stroke="none" 
	d="
M755.608765,630.952087 
	C756.240112,633.137756 755.911804,635.283752 753.254761,636.807190 
	C753.041077,634.740540 754.246094,632.982849 755.608765,630.952087 
z"/>
<path fill="#031327" opacity="1.000000" stroke="none" 
	d="
M319.547852,438.054565 
	C319.446259,439.519226 318.999481,441.039825 318.297729,442.786926 
	C316.251892,440.863983 316.727051,439.250641 319.547852,438.054565 
z"/>
<path fill="#967233" opacity="1.000000" stroke="none" 
	d="
M692.626221,715.980713 
	C692.699402,718.455933 691.264282,719.776733 688.380493,719.991516 
	C689.130615,718.345947 690.599121,717.070496 692.626221,715.980713 
z"/>
<path fill="#031327" opacity="1.000000" stroke="none" 
	d="
M580.809570,246.283020 
	C581.083496,245.124084 581.687317,244.153946 582.552673,243.057205 
	C584.773132,245.301514 584.047424,246.402710 580.809570,246.283020 
z"/>
<path fill="#8C682E" opacity="1.000000" stroke="none" 
	d="
M516.533264,778.200073 
	C514.389343,780.044189 512.084900,777.551941 509.238922,777.966187 
	C511.301483,776.904175 513.738281,777.642517 516.533264,778.200073 
z"/>
<path fill="#C3A365" opacity="1.000000" stroke="none" 
	d="
M608.141235,283.217590 
	C608.184082,281.364319 607.915344,279.144836 609.814575,277.215576 
	C609.521423,278.998627 608.943542,280.996887 608.141235,283.217590 
z"/>
<path fill="#031327" opacity="1.000000" stroke="none" 
	d="
M493.361206,360.937653 
	C493.518646,359.700775 494.007202,358.401276 494.717590,356.908508 
	C497.428497,358.972748 494.682800,359.660767 493.361206,360.937653 
z"/>
<path fill="#031327" opacity="1.000000" stroke="none" 
	d="
M594.524475,273.015381 
	C594.898682,272.998352 594.916016,273.459320 594.864502,273.683929 
	C594.079468,274.876709 593.345886,275.844910 592.322266,276.932709 
	C592.148987,275.401855 591.419067,273.305328 594.524475,273.015381 
z"/>
<path fill="#C3A365" opacity="1.000000" stroke="none" 
	d="
M599.295654,308.956726 
	C599.225708,307.550140 598.651855,305.693481 600.627563,304.245880 
	C600.463013,305.602936 600.001099,307.155060 599.295654,308.956726 
z"/>
<path fill="#031327" opacity="1.000000" stroke="none" 
	d="
M551.562866,340.009521 
	C551.204346,341.333130 550.450928,342.680206 549.419312,344.216125 
	C549.188965,342.656677 548.246765,340.449371 551.562866,340.009521 
z"/>
<path fill="#031327" opacity="1.000000" stroke="none" 
	d="
M569.164551,262.891479 
	C569.627563,261.627533 570.471680,260.341431 571.604736,258.891602 
	C572.031738,260.630493 571.926270,262.394928 569.164551,262.891479 
z"/>
<path fill="#031327" opacity="1.000000" stroke="none" 
	d="
M283.195251,442.898315 
	C283.107330,441.819092 283.362244,440.696594 283.822937,439.291443 
	C285.236572,440.465820 285.620636,441.817749 283.195251,442.898315 
z"/>
<path fill="#A68040" opacity="1.000000" stroke="none" 
	d="
M448.322296,768.914429 
	C447.977631,767.318848 448.156952,765.706177 450.537170,765.036743 
	C450.122070,766.232361 449.365021,767.499756 448.322296,768.914429 
z"/>
<path fill="#031327" opacity="1.000000" stroke="none" 
	d="
M498.096375,422.407410 
	C497.830078,423.496887 497.203705,424.604828 496.299561,425.873047 
	C496.024200,424.560394 495.954376,423.053131 498.096375,422.407410 
z"/>
<path fill="#C3A365" opacity="1.000000" stroke="none" 
	d="
M597.123108,313.423584 
	C597.571289,312.236542 598.020935,311.388000 598.663452,310.320129 
	C598.407166,311.610840 597.958008,313.120819 597.271912,314.872070 
	C597.064819,314.662903 597.094727,314.212494 597.123108,313.423584 
z"/>
<path fill="#031327" opacity="1.000000" stroke="none" 
	d="
M520.972046,319.984772 
	C521.220215,319.244568 521.768982,318.626221 522.608521,317.886414 
	C523.112000,318.602051 524.061523,319.399139 523.342834,320.283142 
	C522.714233,321.056427 521.957153,320.334869 520.972046,319.984772 
z"/>
<path fill="#B08845" opacity="1.000000" stroke="none" 
	d="
M571.349243,392.322449 
	C571.051880,391.065613 570.846924,389.514740 572.573059,388.235718 
	C572.461548,389.386627 572.042725,390.733826 571.349243,392.322449 
z"/>
<path fill="#9F7A39" opacity="1.000000" stroke="none" 
	d="
M558.311401,605.905151 
	C558.069336,604.914917 557.851624,603.650452 559.686279,603.078125 
	C559.546021,603.921936 559.061829,604.830017 558.311401,605.905151 
z"/>
<path fill="#A68040" opacity="1.000000" stroke="none" 
	d="
M442.257751,777.810242 
	C442.077820,776.848389 441.897858,775.602966 443.682129,775.068970 
	C443.519073,775.885742 443.020508,776.769348 442.257751,777.810242 
z"/>
<path fill="#A68040" opacity="1.000000" stroke="none" 
	d="
M446.278809,771.861450 
	C446.089386,770.884949 445.890381,769.614685 447.724365,769.089233 
	C447.559753,769.920837 447.051453,770.809265 446.278809,771.861450 
z"/>
<path fill="#A68040" opacity="1.000000" stroke="none" 
	d="
M440.239227,780.789368 
	C440.093994,779.858093 439.883179,778.610474 441.640442,778.065552 
	C441.479706,778.872925 440.988312,779.749146 440.239227,780.789368 
z"/>
<path fill="#967233" opacity="1.000000" stroke="none" 
	d="
M685.696655,721.593872 
	C685.932800,722.703857 685.738770,723.783081 683.864990,723.892944 
	C684.148621,723.160828 684.785706,722.419617 685.696655,721.593872 
z"/>
<path fill="#EBD7A7" opacity="1.000000" stroke="none" 
	d="
M293.030884,674.323120 
	C294.417389,674.137085 295.003479,674.982910 294.950775,676.725220 
	C294.333344,676.265259 293.712524,675.448425 293.030884,674.323120 
z"/>
<path fill="#031327" opacity="1.000000" stroke="none" 
	d="
M513.087891,399.186096 
	C512.909851,400.152588 512.321045,401.137939 511.449768,402.326538 
	C511.126923,401.174652 510.761658,399.671997 513.087891,399.186096 
z"/>
<path fill="#9F7A39" opacity="1.000000" stroke="none" 
	d="
M562.321289,599.921387 
	C562.068665,598.917847 561.843079,597.638367 563.724304,597.089050 
	C563.578552,597.940247 563.082275,598.845886 562.321289,599.921387 
z"/>
<path fill="#9F7A39" opacity="1.000000" stroke="none" 
	d="
M557.118774,607.769653 
	C555.947510,606.946533 556.346741,606.387390 557.794556,606.061646 
	C557.834839,606.557556 557.590576,607.073242 557.118774,607.769653 
z"/>
<path fill="#031327" opacity="1.000000" stroke="none" 
	d="
M579.045166,248.844177 
	C579.031494,248.220444 579.386902,247.564850 579.967773,246.734253 
	C580.707764,247.577896 580.737061,248.428802 579.045166,248.844177 
z"/>
<path fill="#9BDEF1" opacity="1.000000" stroke="none" 
	d="
M684.180969,518.824707 
	C683.379028,518.600281 683.017883,518.099609 683.756653,517.172485 
	C684.081055,517.559631 684.193359,518.102295 684.180969,518.824707 
z"/>
<path fill="#031327" opacity="1.000000" stroke="none" 
	d="
M495.685364,426.088196 
	C495.700897,426.704865 495.370667,427.391327 494.816711,428.263245 
	C494.199646,427.475769 494.177368,426.623779 495.685364,426.088196 
z"/>
<path fill="#031327" opacity="1.000000" stroke="none" 
	d="
M316.649658,447.577301 
	C317.381866,447.372742 317.647858,447.628601 317.534088,448.197479 
	C317.510468,448.315613 317.342865,448.474365 317.223450,448.492096 
	C316.648987,448.577454 316.408447,448.297791 316.649658,447.577301 
z"/>
<path fill="#B08845" opacity="1.000000" stroke="none" 
	d="
M587.266724,345.811005 
	C587.196899,345.172729 587.365479,344.301147 587.785095,343.203430 
	C587.859131,343.844116 587.682129,344.710907 587.266724,345.811005 
z"/>
<path fill="#031327" opacity="1.000000" stroke="none" 
	d="
M524.440125,382.081299 
	C524.380615,382.676849 524.010437,383.356934 523.380005,384.178345 
	C523.082703,383.426575 523.166870,382.590271 524.440125,382.081299 
z"/>
<path fill="#F4E2BE" opacity="1.000000" stroke="none" 
	d="
M290.012451,604.654907 
	C289.707245,604.403381 289.411957,603.807251 289.112885,602.860474 
	C289.413513,603.109924 289.717896,603.710083 290.012451,604.654907 
z"/>
<path fill="#967233" opacity="1.000000" stroke="none" 
	d="
M697.630554,711.806885 
	C697.487976,712.195435 697.034119,712.558716 696.275635,712.957092 
	C696.420410,712.588623 696.869812,712.185120 697.630554,711.806885 
z"/>
<path fill="#031327" opacity="1.000000" stroke="none" 
	d="
M545.220520,350.288086 
	C545.268494,350.765625 544.976990,351.367279 544.405640,352.154999 
	C544.377563,351.698120 544.629333,351.055145 545.220520,350.288086 
z"/>
<path fill="#9F7A39" opacity="1.000000" stroke="none" 
	d="
M560.261719,602.858582 
	C560.214111,602.472107 560.412659,601.914246 560.867310,601.192627 
	C560.918274,601.581604 560.713074,602.134399 560.261719,602.858582 
z"/>
<path fill="#EBD7A7" opacity="1.000000" stroke="none" 
	d="
M295.784973,678.493530 
	C295.936737,678.165100 296.146637,678.120667 296.676086,678.038574 
	C296.981293,678.456726 296.966949,678.912720 296.969482,679.710449 
	C296.605286,679.627380 296.224213,679.202515 295.784973,678.493530 
z"/>
<path fill="#C3A365" opacity="1.000000" stroke="none" 
	d="
M430.557281,776.987061 
	C430.710663,777.400391 430.611755,777.996887 430.259644,778.781494 
	C430.105927,778.369812 430.205475,777.770020 430.557281,776.987061 
z"/>
<path fill="#967233" opacity="1.000000" stroke="none" 
	d="
M757.574646,626.791443 
	C757.682068,627.222900 757.545593,627.886719 757.116577,628.740295 
	C756.992859,628.294617 757.161804,627.659241 757.574646,626.791443 
z"/>
<path fill="#B08845" opacity="1.000000" stroke="none" 
	d="
M586.382935,347.978394 
	C586.267517,347.562988 586.411987,346.976196 586.801392,346.200195 
	C586.911926,346.609680 586.777405,347.208374 586.382935,347.978394 
z"/>
<path fill="#A68040" opacity="1.000000" stroke="none" 
	d="
M451.186829,764.683167 
	C451.181854,764.329529 451.411133,763.818604 451.886841,763.161743 
	C451.895874,763.519226 451.658478,764.022522 451.186829,764.683167 
z"/>
<path fill="#F4E2BE" opacity="1.000000" stroke="none" 
	d="
M449.736694,499.159698 
	C449.773163,499.563843 449.546753,500.113098 449.041199,500.791565 
	C448.999298,500.382080 449.236572,499.843445 449.736694,499.159698 
z"/>
<path fill="#EBD7A7" opacity="1.000000" stroke="none" 
	d="
M317.074646,660.677734 
	C316.771973,660.520813 316.427948,660.073914 316.031799,659.335693 
	C316.330841,659.492249 316.682068,659.939941 317.074646,660.677734 
z"/>
<path fill="#967233" opacity="1.000000" stroke="none" 
	d="
M544.755981,777.948975 
	C544.744873,778.089233 544.477417,778.206482 544.103882,778.182983 
	C544.165039,778.003540 544.332275,777.964722 544.755981,777.948975 
z"/>
<path fill="#967233" opacity="1.000000" stroke="none" 
	d="
M687.766418,720.111084 
	C687.850464,720.320801 687.636047,720.568420 687.136963,720.874390 
	C687.120972,720.726379 687.326172,720.465088 687.766418,720.111084 
z"/>
<path fill="#CBF1FB" opacity="1.000000" stroke="none" 
	d="
M397.387939,508.650177 
	C397.058472,508.744659 396.479370,508.771942 397.011658,508.049438 
	C397.256256,508.084167 397.343048,508.237000 397.387939,508.650177 
z"/>
<path fill="#A68040" opacity="1.000000" stroke="none" 
	d="
M445.292969,773.195557 
	C445.221802,773.018738 445.390442,772.678528 445.792267,772.171814 
	C445.861206,772.347595 445.696991,772.689941 445.292969,773.195557 
z"/>
<path fill="#967233" opacity="1.000000" stroke="none" 
	d="
M693.723328,715.009888 
	C693.773071,715.192200 693.572205,715.463806 693.144897,715.856201 
	C693.103271,715.684326 693.288025,715.391724 693.723328,715.009888 
z"/>
<path fill="#031327" opacity="1.000000" stroke="none" 
	d="
M516.880615,393.197266 
	C517.044128,393.351166 516.983643,393.665680 516.761353,394.169983 
	C516.636963,394.029388 516.656006,393.695404 516.880615,393.197266 
z"/>
<path fill="#967233" opacity="1.000000" stroke="none" 
	d="
M694.734741,713.995972 
	C694.779297,714.167725 694.579651,714.447388 694.150696,714.851562 
	C694.111084,714.685364 694.300842,714.394653 694.734741,713.995972 
z"/>
<path fill="#031327" opacity="1.000000" stroke="none" 
	d="
M516.234497,394.552826 
	C516.376953,394.643188 516.292542,394.922211 516.152100,394.961273 
	C516.011719,395.000336 515.765320,394.619537 515.765320,394.619537 
	C515.765320,394.619537 516.092041,394.462463 516.234497,394.552826 
z"/>
<path fill="#031327" opacity="1.000000" stroke="none" 
	d="
M567.271362,264.854034 
	C567.190308,264.678497 567.309875,264.362000 567.686768,263.956543 
	C567.874329,264.198273 567.716919,264.480103 567.271362,264.854034 
z"/>
<path fill="#7ACDE9" opacity="1.000000" stroke="none" 
	d="
M427.249878,599.620483 
	C427.013397,599.685303 426.696747,599.453003 426.320679,598.922852 
	C426.564117,598.857666 426.866882,599.090515 427.249878,599.620483 
z"/>
<path fill="#9F7A39" opacity="1.000000" stroke="none" 
	d="
M561.303162,601.030762 
	C561.236633,600.826416 561.433655,600.545044 561.862915,600.143799 
	C561.919067,600.333862 561.742859,600.643799 561.303162,601.030762 
z"/>
<path fill="#17446A" opacity="1.000000" stroke="none" 
	d="
M504.212494,322.026886 
	C504.172699,321.893188 504.457916,321.664429 504.619507,321.747437 
	C504.781067,321.830414 504.642548,322.173798 504.642548,322.173798 
	C504.642548,322.173798 504.252289,322.160583 504.212494,322.026886 
z"/>
<path fill="#031327" opacity="1.000000" stroke="none" 
	d="
M595.836487,271.221161 
	C595.949646,271.423523 595.814392,271.819305 595.416504,272.396942 
	C595.298645,272.190704 595.443359,271.802612 595.836487,271.221161 
z"/>
<path fill="#F2DDB2" opacity="1.000000" stroke="none" 
	d="
M299.989319,629.727722 
	C299.765106,629.727295 299.548981,629.448242 299.324463,628.896423 
	C299.543182,628.898804 299.770294,629.173950 299.989319,629.727722 
z"/>
<path fill="#967233" opacity="1.000000" stroke="none" 
	d="
M756.665039,628.956421 
	C756.869263,629.184509 756.741760,629.465454 756.319702,629.834839 
	C756.082214,629.615417 756.184937,629.310730 756.665039,628.956421 
z"/>
<path fill="#7ACDE9" opacity="1.000000" stroke="none" 
	d="
M671.852112,564.727051 
	C671.451416,564.675659 671.439148,564.417236 671.827576,564.091187 
	C671.963684,564.015259 671.976013,564.511780 671.852112,564.727051 
z"/>
<path fill="#7ACDE9" opacity="1.000000" stroke="none" 
	d="
M672.888550,561.728455 
	C672.470154,561.685608 672.452332,561.417908 672.866150,561.072510 
	C673.006592,561.161011 673.003662,561.330566 672.888550,561.728455 
z"/>
<path fill="#031327" opacity="1.000000" stroke="none" 
	d="
M599.738037,265.171509 
	C599.834412,265.351746 599.720276,265.697357 599.358398,266.174652 
	C599.249512,265.983154 599.388489,265.659973 599.738037,265.171509 
z"/>
<path fill="#031327" opacity="1.000000" stroke="none" 
	d="
M321.020386,434.119385 
	C321.201691,434.243073 321.210602,434.413574 321.065399,434.788635 
	C320.804413,434.797668 320.679077,434.608673 320.605377,434.401306 
	C320.589722,434.357239 320.762207,434.246277 321.020386,434.119385 
z"/>
<path fill="#EBD7A7" opacity="1.000000" stroke="none" 
	d="
M317.813049,661.713989 
	C317.565765,661.792664 317.363129,661.570923 317.130829,661.084839 
	C317.389648,660.950562 317.641815,661.148254 317.813049,661.713989 
z"/>
<path fill="#EBD7A7" opacity="1.000000" stroke="none" 
	d="
M318.995728,663.685181 
	C318.787750,663.695984 318.530396,663.408630 318.192444,662.838196 
	C318.389984,662.832397 318.668152,663.109680 318.995728,663.685181 
z"/>
<path fill="#EBD7A7" opacity="1.000000" stroke="none" 
	d="
M320.195160,665.528320 
	C320.117279,665.545166 320.096802,665.431030 320.056946,665.427490 
	C320.017090,665.424011 320.273041,665.511475 320.195160,665.528320 
z"/>
<path fill="#17446A" opacity="1.000000" stroke="none" 
	d="
M498.207764,347.491669 
	C498.890228,346.800018 498.884918,347.276886 498.779419,347.741821 
	C498.465820,347.778839 498.300598,347.755096 498.207764,347.491669 
z"/>
<path fill="#EBD7A7" opacity="1.000000" stroke="none" 
	d="
M294.964233,677.307007 
	C295.178467,677.273621 295.439911,677.523315 295.778992,678.039795 
	C295.574860,678.067810 295.293121,677.828918 294.964233,677.307007 
z"/>
<path fill="#9BDEF1" opacity="1.000000" stroke="none" 
	d="
M659.269714,516.021484 
	C659.666626,516.034485 660.440186,516.140686 659.470703,516.807617 
	C659.197632,516.657654 659.182495,516.470642 659.269714,516.021484 
z"/>
<path fill="#DCC38C" opacity="1.000000" stroke="none" 
	d="
M350.078064,701.698486 
	C349.854797,701.772339 349.567108,701.554993 349.143372,701.101318 
	C349.342712,701.045776 349.678162,701.226562 350.078064,701.698486 
z"/>
<path fill="#DCC38C" opacity="1.000000" stroke="none" 
	d="
M351.074738,702.701477 
	C350.854309,702.773621 350.567596,702.555908 350.143372,702.103394 
	C350.340057,702.049622 350.674255,702.230591 351.074738,702.701477 
z"/>
<path fill="#DCC38C" opacity="1.000000" stroke="none" 
	d="
M352.206573,703.688110 
	C352.023895,703.758545 351.684265,703.565002 351.168427,703.137451 
	C351.344666,703.077026 351.697113,703.250610 352.206573,703.688110 
z"/>
<path fill="#011125" opacity="1.000000" stroke="none" 
	d="
M493.414429,236.238663 
	C493.219360,234.660187 492.347626,232.547882 494.786499,232.176071 
	C496.823883,231.865463 497.829376,233.085342 497.984619,235.440689 
	C496.608978,235.979584 495.219635,236.143723 493.414429,236.238663 
z"/>
<path fill="#011125" opacity="1.000000" stroke="none" 
	d="
M535.428223,235.043289 
	C538.207214,233.510483 541.428345,233.456787 544.834473,235.125183 
	C541.949402,235.347168 538.899780,235.245483 535.428223,235.043289 
z"/>
<path fill="#F4E2BE" opacity="1.000000" stroke="none" 
	d="
M512.841492,461.106384 
	C513.148499,462.928741 512.248962,464.440765 511.092590,466.142395 
	C507.174896,463.319489 509.498566,462.123016 512.841492,461.106384 
z"/>
<path fill="#F4E2BE" opacity="1.000000" stroke="none" 
	d="
M595.026855,289.122437 
	C594.794373,291.908051 593.180603,294.331543 591.381897,296.996094 
	C590.573425,293.768585 592.348083,291.384369 595.026855,289.122437 
z"/>
<path fill="#F4E2BE" opacity="1.000000" stroke="none" 
	d="
M597.836792,284.104004 
	C597.562317,285.373718 596.924011,286.656158 596.065186,288.127777 
	C592.403198,285.372192 595.918701,285.124634 597.836792,284.104004 
z"/>
<path fill="#F4E2BE" opacity="1.000000" stroke="none" 
	d="
M516.603149,453.025391 
	C516.705627,453.525665 516.539062,454.068909 516.143799,454.793549 
	C514.997925,454.107178 515.216675,453.489014 516.603149,453.025391 
z"/>
<path fill="#A68040" opacity="1.000000" stroke="none" 
	d="
M524.651978,540.602173 
	C522.439331,537.991882 519.701111,539.384583 517.371826,538.982849 
	C516.245239,538.788452 514.348450,539.538513 514.635010,537.281433 
	C515.616333,529.552490 515.002991,521.661194 517.015015,513.631836 
	C535.371948,513.120972 553.724426,513.017822 572.541748,512.985840 
	C573.098389,514.810974 572.586426,516.232483 570.902283,517.072449 
	C569.180786,517.930969 568.934570,519.498291 569.011475,521.580078 
	C557.584473,526.044189 546.800110,531.614990 535.646606,536.328247 
	C532.132751,537.813049 528.576172,539.196777 524.651978,540.602173 
z"/>
<path fill="#DCC38C" opacity="1.000000" stroke="none" 
	d="
M493.410217,673.857788 
	C492.786926,670.279053 491.880096,666.258118 497.558838,664.987183 
	C496.826355,668.020996 495.570618,670.997375 493.410217,673.857788 
z"/>
<path fill="#DCC38C" opacity="1.000000" stroke="none" 
	d="
M486.325073,686.826172 
	C483.558044,683.053223 485.673126,681.226379 489.637299,680.045410 
	C488.867859,682.212097 487.732849,684.421936 486.325073,686.826172 
z"/>
<path fill="#011125" opacity="1.000000" stroke="none" 
	d="
M622.690430,228.997986 
	C621.350708,231.913437 619.593262,234.829956 617.558960,237.931763 
	C614.701660,232.784256 616.558960,229.390762 622.690430,228.997986 
z"/>
<path fill="#011125" opacity="1.000000" stroke="none" 
	d="
M606.793701,253.888199 
	C606.757202,255.412994 606.062561,256.541779 604.516846,257.417419 
	C603.695862,255.942841 602.130188,254.282288 603.659607,252.727798 
	C604.633728,251.737701 605.554382,253.295776 606.793701,253.888199 
z"/>
</svg>